<svg width="61" height="60" viewBox="0 0 61 60" fill="none" xmlns="http://www.w3.org/2000/svg">
<g clip-path="url(#clip0_5780_14344)">
<mask id="mask0_5780_14344" style="mask-type:luminance" maskUnits="userSpaceOnUse" x="0" y="0" width="61" height="60">
<path d="M60.5 0H0.5V60H60.5V0Z" fill="white"/>
</mask>
<g mask="url(#mask0_5780_14344)">
<path d="M30.4981 60V55.3317C15.2175 55.3317 0.5 45.2796 0.5 30H5.16485C5.16485 14.7203 15.2175 0 30.4981 0V4.66836C45.7787 4.66836 60.5 14.7203 60.5 30H55.8353C55.8353 45.2796 45.7787 60 30.4981 60Z" fill="url(#paint0_linear_5780_14344)"/>
</g>
</g>
<g clip-path="url(#clip1_5780_14344)">
<path d="M26.5 34H23.93C21.64 34 20.5 32.86 20.5 30.57V23.43C20.5 21.14 21.64 20 23.93 20H28.5C30.79 20 31.93 21.14 31.93 23.43" stroke="#8517B6" stroke-width="2.5" stroke-linecap="round" stroke-linejoin="round"/>
<path d="M37.0703 40H32.5003C30.2103 40 29.0703 38.86 29.0703 36.57V29.43C29.0703 27.14 30.2103 26 32.5003 26H37.0703C39.3603 26 40.5003 27.14 40.5003 29.43V36.57C40.5003 38.86 39.3603 40 37.0703 40Z" stroke="#8517B6" stroke-width="2.5" stroke-linecap="round" stroke-linejoin="round"/>
<path d="M33.3701 33H36.6301" stroke="#8517B6" stroke-width="2.5" stroke-linecap="round" stroke-linejoin="round"/>
<path d="M35 34.63V31.37" stroke="#8517B6" stroke-width="2.5" stroke-linecap="round" stroke-linejoin="round"/>
</g>
<defs>
<linearGradient id="paint0_linear_5780_14344" x1="47.75" y1="9.6" x2="13.7" y2="44.25" gradientUnits="userSpaceOnUse">
<stop offset="0.0509862" stop-color="#F2D6FF"/>
<stop offset="1" stop-color="#FBE3EA"/>
</linearGradient>
<clipPath id="clip0_5780_14344">
<rect width="60" height="60" fill="white" transform="translate(0.5)"/>
</clipPath>
<clipPath id="clip1_5780_14344">
<rect width="24" height="24" fill="white" transform="translate(18.5 18)"/>
</clipPath>
</defs>
</svg>
