<svg width="95" height="25" viewBox="0 0 95 25" fill="none" xmlns="http://www.w3.org/2000/svg">
<path d="M11.4453 2.46094C11.4922 2.50781 11.5312 2.57031 11.5625 2.64844C11.5938 2.71094 11.6094 2.78125 11.6094 2.85938C11.625 2.9375 11.6172 3.01562 11.5859 3.09375C11.5703 3.15625 11.5156 3.19531 11.4219 3.21094C11.4844 3.27344 11.5 3.33594 11.4688 3.39844C11.4375 3.44531 11.4219 3.50781 11.4219 3.58594C11.4062 3.75781 11.4062 3.92969 11.4219 4.10156C11.4375 4.27344 11.4297 4.4375 11.3984 4.59375C11.3828 4.67188 11.3594 4.74219 11.3281 4.80469C11.2969 4.85156 11.2656 4.90625 11.2344 4.96875C11.2031 5.04688 11.1719 5.11719 11.1406 5.17969C11.1094 5.24219 11.0781 5.28906 11.0469 5.32031C10.9219 5.39844 10.7656 5.40625 10.5781 5.34375C10.3906 5.28125 10.2188 5.28125 10.0625 5.34375C9.9375 5.25 9.8125 5.21875 9.6875 5.25C9.5625 5.28125 9.42969 5.24219 9.28906 5.13281C9.14844 5.17969 9.00781 5.1875 8.86719 5.15625C8.74219 5.125 8.60156 5.10156 8.44531 5.08594C8.39844 5.08594 8.35156 5.09375 8.30469 5.10938C8.25781 5.125 8.21094 5.125 8.16406 5.10938C8.08594 5.09375 8.00781 5.07031 7.92969 5.03906C7.85156 4.99219 7.77344 4.96875 7.69531 4.96875C7.63281 4.95312 7.5625 4.96094 7.48438 4.99219C7.42188 5.00781 7.35156 5.01562 7.27344 5.01562H6.875C6.65625 4.98438 6.42969 4.96094 6.19531 4.94531C5.96094 4.92969 5.69531 4.90625 5.39844 4.875C5.16406 4.84375 4.92188 4.82812 4.67188 4.82812C4.4375 4.82812 4.1875 4.84375 3.92188 4.875C3.84375 5.03125 3.8125 5.19531 3.82812 5.36719C3.85938 5.52344 3.88281 5.6875 3.89844 5.85938C3.91406 6.03125 3.92188 6.20312 3.92188 6.375C3.9375 6.54688 3.95312 6.71875 3.96875 6.89062C3.96875 6.9375 3.96094 6.99219 3.94531 7.05469C3.92969 7.10156 3.92188 7.14844 3.92188 7.19531C3.92188 7.28906 3.92969 7.40625 3.94531 7.54688C3.96094 7.6875 3.96875 7.82031 3.96875 7.94531C3.96875 8.05469 3.96094 8.15625 3.94531 8.25C3.92969 8.32812 3.94531 8.41406 3.99219 8.50781C4.13281 8.55469 4.28906 8.57812 4.46094 8.57812C4.57031 8.59375 4.67188 8.60156 4.76562 8.60156C4.875 8.60156 4.97656 8.60156 5.07031 8.60156C5.24219 8.58594 5.40625 8.57812 5.5625 8.57812C5.73438 8.57812 5.90625 8.57812 6.07812 8.57812C6.34375 8.57812 6.60156 8.57812 6.85156 8.57812C7.11719 8.57812 7.40625 8.5625 7.71875 8.53125C7.85938 8.51562 7.99219 8.5 8.11719 8.48438C8.25781 8.45312 8.39844 8.47656 8.53906 8.55469C8.61719 8.52344 8.69531 8.50781 8.77344 8.50781C8.86719 8.50781 8.95312 8.5 9.03125 8.48438C9.10938 8.46875 9.17188 8.46875 9.21875 8.48438C9.26562 8.5 9.32812 8.50781 9.40625 8.50781C9.65625 8.49219 9.85156 8.49219 9.99219 8.50781C10.1328 8.52344 10.2656 8.53125 10.3906 8.53125C10.4688 8.51562 10.5391 8.5 10.6016 8.48438C10.6797 8.46875 10.75 8.46875 10.8125 8.48438C10.8906 8.48438 10.9297 8.51562 10.9297 8.57812C10.9453 8.625 10.9688 8.67188 11 8.71875C11.0625 8.84375 11.0938 8.97656 11.0938 9.11719C11.0938 9.24219 11.0859 9.39844 11.0703 9.58594C11.0859 9.66406 11.0781 9.74219 11.0469 9.82031C11.0312 9.88281 11.0234 9.9375 11.0234 9.98438C11.0078 10.1875 11.0078 10.375 11.0234 10.5469C11.0391 10.7031 11.0781 10.8672 11.1406 11.0391C11.1094 11.1172 11.0781 11.2031 11.0469 11.2969C11.0156 11.375 10.9688 11.4453 10.9062 11.5078C10.8438 11.4922 10.7891 11.5 10.7422 11.5312C10.6953 11.5625 10.6484 11.5781 10.6016 11.5781C10.5234 11.5781 10.4609 11.5703 10.4141 11.5547C10.3672 11.5234 10.3125 11.4922 10.25 11.4609C10.2188 11.4141 10.1641 11.4141 10.0859 11.4609C10.0234 11.4922 10 11.4531 10.0156 11.3438C9.85938 11.4375 9.72656 11.4922 9.61719 11.5078C9.50781 11.5078 9.42969 11.5391 9.38281 11.6016C9.30469 11.5391 9.21094 11.5156 9.10156 11.5312C9.00781 11.5312 8.91406 11.5469 8.82031 11.5781C8.74219 11.5469 8.65625 11.5312 8.5625 11.5312C8.48438 11.5156 8.375 11.5 8.23438 11.4844C8.15625 11.4531 8.0625 11.4609 7.95312 11.5078C7.85938 11.5547 7.77344 11.5859 7.69531 11.6016C7.53906 11.5547 7.39844 11.5469 7.27344 11.5781C7.14844 11.6094 7.03125 11.6484 6.92188 11.6953C6.84375 11.7109 6.79688 11.6953 6.78125 11.6484C6.76562 11.5859 6.71875 11.5625 6.64062 11.5781C6.57812 11.625 6.48438 11.6484 6.35938 11.6484C6.25 11.6328 6.17188 11.6562 6.125 11.7188C6.04688 11.6406 5.92969 11.625 5.77344 11.6719C5.63281 11.7031 5.51562 11.6719 5.42188 11.5781C5.39062 11.6406 5.34375 11.6641 5.28125 11.6484C5.23438 11.6172 5.17188 11.6094 5.09375 11.625C5.03125 11.625 4.96875 11.6328 4.90625 11.6484C4.85938 11.6641 4.80469 11.6719 4.74219 11.6719C4.66406 11.6875 4.57031 11.6797 4.46094 11.6484C4.36719 11.6172 4.28125 11.625 4.20312 11.6719C4.125 11.7188 4.09375 11.7812 4.10938 11.8594C4.125 11.9375 4.125 12.0234 4.10938 12.1172C4.09375 12.1641 4.07812 12.2109 4.0625 12.2578C4.04688 12.3047 4.03906 12.3516 4.03906 12.3984C4.03906 12.4609 4.04688 12.5234 4.0625 12.5859C4.09375 12.6328 4.10156 12.6875 4.08594 12.75C4.08594 12.875 4.0625 13.0078 4.01562 13.1484C3.98438 13.2891 3.95312 13.4297 3.92188 13.5703C3.85938 13.8203 3.82812 14.0156 3.82812 14.1562C3.82812 14.2969 3.78906 14.4219 3.71094 14.5312C3.75781 14.625 3.78125 14.7109 3.78125 14.7891C3.79688 14.9141 3.80469 15.0469 3.80469 15.1875C3.80469 15.3281 3.80469 15.4609 3.80469 15.5859C3.80469 15.6797 3.80469 15.7812 3.80469 15.8906C3.80469 15.9844 3.78906 16.0859 3.75781 16.1953C3.74219 16.2422 3.72656 16.2891 3.71094 16.3359C3.69531 16.3828 3.6875 16.4297 3.6875 16.4766C3.67188 16.5547 3.67969 16.6406 3.71094 16.7344C3.74219 16.8281 3.74219 16.9219 3.71094 17.0156C3.85156 17.0938 4 17.125 4.15625 17.1094C4.32812 17.0938 4.52344 17.0859 4.74219 17.0859C5.00781 17.0703 5.27344 17.0469 5.53906 17.0156C5.82031 16.9844 6.07031 16.9688 6.28906 16.9688C6.41406 16.9688 6.52344 16.9844 6.61719 17.0156C6.72656 17.0469 6.83594 17.0469 6.94531 17.0156C7.05469 16.9844 7.17969 16.9609 7.32031 16.9453C7.47656 16.9141 7.61719 16.9062 7.74219 16.9219C7.91406 16.9062 8.04688 16.9062 8.14062 16.9219C8.25 16.9375 8.35156 16.9453 8.44531 16.9453C8.58594 16.9453 8.71094 16.9453 8.82031 16.9453C8.94531 16.9297 9.07031 16.9141 9.19531 16.8984C9.25781 16.8828 9.3125 16.8672 9.35938 16.8516C9.42188 16.8359 9.48438 16.8281 9.54688 16.8281C9.65625 16.8438 9.73438 16.8516 9.78125 16.8516C9.82812 16.8359 9.86719 16.8281 9.89844 16.8281C9.99219 16.8594 10.0547 16.8672 10.0859 16.8516C10.1172 16.8359 10.1406 16.8281 10.1562 16.8281C10.2188 16.8594 10.2969 16.8594 10.3906 16.8281C10.4844 16.7812 10.6016 16.7734 10.7422 16.8047C10.7891 16.8359 10.8125 16.8906 10.8125 16.9688C10.8281 17.0312 10.8594 17.0781 10.9062 17.1094C10.8906 17.1875 10.9062 17.2344 10.9531 17.25C11 17.2656 11.0312 17.3047 11.0469 17.3672C11.0781 17.7422 11.0703 18.1172 11.0234 18.4922C10.9766 18.8516 10.9453 19.2344 10.9297 19.6406C10.8984 19.6875 10.8594 19.7188 10.8125 19.7344C10.7656 19.7656 10.7109 19.7969 10.6484 19.8281C10.6016 19.8594 10.5469 19.8906 10.4844 19.9219C10.4375 19.9531 10.3828 19.9688 10.3203 19.9688C10.2578 19.9688 10.1953 19.9531 10.1328 19.9219C10.0703 19.9062 10.0078 19.8906 9.94531 19.875C9.86719 19.875 9.78906 19.8828 9.71094 19.8984C9.64844 19.9141 9.57031 19.9219 9.47656 19.9219C9.35156 19.9219 9.21094 19.9141 9.05469 19.8984C8.91406 19.8828 8.76562 19.8672 8.60938 19.8516C8.4375 19.8359 8.27344 19.8203 8.11719 19.8047C7.97656 19.8047 7.86719 19.7812 7.78906 19.7344C7.71094 19.7188 7.65625 19.7266 7.625 19.7578C7.59375 19.8047 7.53906 19.8281 7.46094 19.8281C7.30469 19.7812 7.13281 19.7578 6.94531 19.7578C6.77344 19.7578 6.58594 19.75 6.38281 19.7344C6.24219 19.7188 6.10156 19.7188 5.96094 19.7344C5.83594 19.7656 5.69531 19.7812 5.53906 19.7812C5.41406 19.7969 5.28125 19.7969 5.14062 19.7812C5.01562 19.7656 4.89062 19.7656 4.76562 19.7812C4.625 19.7812 4.49219 19.7891 4.36719 19.8047C4.25781 19.8359 4.14062 19.8438 4.01562 19.8281C3.9375 19.8281 3.86719 19.8125 3.80469 19.7812C3.75781 19.7656 3.69531 19.7578 3.61719 19.7578C3.52344 19.7734 3.44531 19.7656 3.38281 19.7344C3.32031 19.7188 3.25781 19.7109 3.19531 19.7109C3.07031 19.6797 2.9375 19.6562 2.79688 19.6406C2.65625 19.6406 2.52344 19.6016 2.39844 19.5234C2.33594 19.5547 2.27344 19.5625 2.21094 19.5469C2.16406 19.5312 2.10938 19.5234 2.04688 19.5234C1.96875 19.5391 1.90625 19.5391 1.85938 19.5234C1.8125 19.5234 1.77344 19.5234 1.74219 19.5234C1.63281 19.5391 1.52344 19.5625 1.41406 19.5938C1.32031 19.6406 1.21875 19.6484 1.10938 19.6172C1 19.5391 0.9375 19.4688 0.921875 19.4062C0.90625 19.3438 0.882812 19.2734 0.851562 19.1953C0.835938 19.1484 0.8125 19.1016 0.78125 19.0547C0.765625 18.9922 0.757812 18.9297 0.757812 18.8672C0.742188 18.7891 0.742188 18.7266 0.757812 18.6797C0.773438 18.6172 0.773438 18.5547 0.757812 18.4922C0.742188 18.4141 0.71875 18.3438 0.6875 18.2812C0.65625 18.2031 0.625 18.1328 0.59375 18.0703C0.625 17.8984 0.625 17.7344 0.59375 17.5781C0.5625 17.4219 0.554688 17.25 0.570312 17.0625C0.570312 16.9219 0.578125 16.8203 0.59375 16.7578C0.609375 16.6953 0.617188 16.6406 0.617188 16.5938C0.617188 16.5469 0.609375 16.5 0.59375 16.4531C0.578125 16.4062 0.5625 16.3594 0.546875 16.3125C0.53125 16.2344 0.53125 16.1953 0.546875 16.1953C0.5625 16.1797 0.5625 16.1328 0.546875 16.0547C0.53125 15.9297 0.492188 15.7969 0.429688 15.6562C0.382812 15.5156 0.382812 15.375 0.429688 15.2344C0.460938 15.1406 0.460938 15.0703 0.429688 15.0234C0.414062 14.9766 0.40625 14.9375 0.40625 14.9062C0.40625 14.8281 0.414062 14.75 0.429688 14.6719C0.460938 14.5781 0.492188 14.4844 0.523438 14.3906C0.523438 14.3125 0.515625 14.25 0.5 14.2031C0.484375 14.1406 0.46875 14.0781 0.453125 14.0156C0.484375 13.9062 0.484375 13.8438 0.453125 13.8281C0.4375 13.7969 0.429688 13.7578 0.429688 13.7109C0.429688 13.6484 0.4375 13.5859 0.453125 13.5234C0.46875 13.4609 0.476562 13.3984 0.476562 13.3359C0.460938 13.2109 0.460938 13.1016 0.476562 13.0078C0.507812 12.8984 0.484375 12.8125 0.40625 12.75C0.484375 12.5938 0.5 12.4375 0.453125 12.2812C0.421875 12.1094 0.40625 11.9297 0.40625 11.7422C0.390625 11.6641 0.390625 11.5938 0.40625 11.5312C0.421875 11.4688 0.4375 11.3984 0.453125 11.3203C0.453125 11.2578 0.445312 11.2031 0.429688 11.1562C0.414062 11.0938 0.40625 11.0312 0.40625 10.9688C0.421875 10.875 0.429688 10.7891 0.429688 10.7109C0.429688 10.6172 0.429688 10.5156 0.429688 10.4062C0.429688 10.3594 0.4375 10.3125 0.453125 10.2656C0.46875 10.2188 0.476562 10.1719 0.476562 10.125C0.460938 10.0938 0.445312 10.0469 0.429688 9.98438C0.414062 9.90625 0.40625 9.84375 0.40625 9.79688C0.40625 9.65625 0.429688 9.57031 0.476562 9.53906C0.445312 9.46094 0.414062 9.39844 0.382812 9.35156C0.367188 9.30469 0.390625 9.24219 0.453125 9.16406C0.390625 8.99219 0.367188 8.89062 0.382812 8.85938C0.414062 8.82812 0.429688 8.78125 0.429688 8.71875C0.414062 8.54688 0.398438 8.39844 0.382812 8.27344C0.367188 8.13281 0.359375 8 0.359375 7.875C0.359375 7.82812 0.367188 7.78125 0.382812 7.73438C0.398438 7.67188 0.40625 7.61719 0.40625 7.57031C0.40625 7.49219 0.398438 7.42969 0.382812 7.38281C0.367188 7.33594 0.367188 7.28125 0.382812 7.21875C0.460938 6.95312 0.5 6.75 0.5 6.60938C0.5 6.45312 0.539062 6.32031 0.617188 6.21094C0.507812 6.00781 0.484375 5.77344 0.546875 5.50781C0.609375 5.22656 0.640625 4.94531 0.640625 4.66406C0.65625 4.47656 0.648438 4.28125 0.617188 4.07812C0.601562 3.85938 0.609375 3.63281 0.640625 3.39844C0.65625 3.22656 0.648438 3.08594 0.617188 2.97656C0.585938 2.86719 0.570312 2.77344 0.570312 2.69531C0.570312 2.61719 0.585938 2.53906 0.617188 2.46094C0.648438 2.38281 0.679688 2.30469 0.710938 2.22656C0.742188 2.16406 0.765625 2.10938 0.78125 2.0625C0.8125 2 0.859375 1.95313 0.921875 1.92188C1.59375 2.04688 2.25 2.07812 2.89062 2.01562C3.54688 1.9375 4.17188 1.92188 4.76562 1.96875C4.9375 2 5.10156 2.03906 5.25781 2.08594C5.42969 2.11719 5.60156 2.14063 5.77344 2.15625C5.88281 2.17187 5.99219 2.17187 6.10156 2.15625C6.21094 2.125 6.35156 2.10156 6.52344 2.08594C6.67969 2.11719 6.78125 2.13281 6.82812 2.13281C6.89062 2.11719 6.9375 2.10938 6.96875 2.10938C7.04688 2.10938 7.11719 2.125 7.17969 2.15625C7.24219 2.17187 7.3125 2.17969 7.39062 2.17969C7.51562 2.21094 7.63281 2.22656 7.74219 2.22656C7.85156 2.22656 7.96875 2.23438 8.09375 2.25C8.1875 2.25 8.28906 2.24219 8.39844 2.22656C8.50781 2.21094 8.61719 2.21094 8.72656 2.22656C8.86719 2.22656 9.03906 2.25 9.24219 2.29688C9.44531 2.32813 9.64062 2.35156 9.82812 2.36719C9.95312 2.35156 10.0391 2.35156 10.0859 2.36719C10.1484 2.38281 10.2031 2.39844 10.25 2.41406C10.4688 2.44531 10.6719 2.45312 10.8594 2.4375C11.0469 2.42188 11.2422 2.42969 11.4453 2.46094ZM26.5625 6.67969C26.5625 6.75781 26.5391 6.82031 26.4922 6.86719C26.4609 6.89844 26.4219 6.9375 26.375 6.98438C26.3438 7.20312 26.2891 7.40625 26.2109 7.59375C26.1484 7.78125 26.0703 7.96875 25.9766 8.15625C25.8516 8.39062 25.7344 8.64844 25.625 8.92969C25.5781 9.07031 25.5391 9.1875 25.5078 9.28125C25.4766 9.35938 25.4766 9.4375 25.5078 9.51562C25.4297 9.57812 25.375 9.64062 25.3438 9.70312C25.3281 9.76562 25.3047 9.82812 25.2734 9.89062C25.2109 10.0156 25.1406 10.125 25.0625 10.2188C25 10.2969 24.9531 10.4219 24.9219 10.5938C24.875 10.6719 24.8125 10.7344 24.7344 10.7812C24.7188 10.8594 24.6953 10.9453 24.6641 11.0391C24.6328 11.1328 24.6016 11.2188 24.5703 11.2969C24.5391 11.3594 24.5 11.4219 24.4531 11.4844C24.4219 11.5312 24.3828 11.5938 24.3359 11.6719C24.2578 11.7969 24.2266 11.875 24.2422 11.9062C24.2578 11.9375 24.25 11.9922 24.2188 12.0703C24.1094 12.2266 24.0234 12.4141 23.9609 12.6328C23.9141 12.8359 23.8203 13 23.6797 13.125C23.6641 13.2031 23.6484 13.2734 23.6328 13.3359C23.6172 13.3984 23.5859 13.4688 23.5391 13.5469C23.5234 13.5781 23.5 13.6172 23.4688 13.6641C23.4531 13.6953 23.4297 13.7578 23.3984 13.8516C23.3672 13.9453 23.3438 14.0469 23.3281 14.1562C23.3281 14.25 23.3125 14.3516 23.2812 14.4609C23.25 14.5078 23.2188 14.5469 23.1875 14.5781C23.1562 14.6094 23.125 14.6484 23.0938 14.6953C23.0938 14.7422 23.0859 14.7891 23.0703 14.8359C23.0703 14.8828 23.0703 14.9453 23.0703 15.0234C23.0391 15.0547 23.0078 15.0859 22.9766 15.1172C22.9609 15.1484 22.9297 15.1797 22.8828 15.2109C22.9141 15.2734 22.9062 15.3516 22.8594 15.4453C22.8281 15.5234 22.7812 15.5938 22.7188 15.6562C22.7031 15.6719 22.6875 15.7188 22.6719 15.7969C22.6562 15.875 22.6328 15.9375 22.6016 15.9844C22.5859 16.0625 22.5781 16.1172 22.5781 16.1484C22.5781 16.1797 22.5625 16.2188 22.5312 16.2656C22.5 16.3125 22.4609 16.3672 22.4141 16.4297C22.3828 16.4922 22.3359 16.5391 22.2734 16.5703C22.2734 16.7891 22.2266 16.9609 22.1328 17.0859C22.0547 17.2109 22.0156 17.375 22.0156 17.5781C21.9219 17.6562 21.8672 17.7266 21.8516 17.7891C21.8359 17.8359 21.8125 17.875 21.7812 17.9062C21.7188 18 21.6875 18.0781 21.6875 18.1406C21.6875 18.2031 21.6797 18.2578 21.6641 18.3047C21.6016 18.4297 21.5703 18.5156 21.5703 18.5625C21.5703 18.5938 21.5625 18.625 21.5469 18.6562C21.5312 18.6875 21.4922 18.7188 21.4297 18.75C21.3828 18.7812 21.3438 18.8203 21.3125 18.8672C21.2812 19.0234 21.2344 19.1484 21.1719 19.2422C21.125 19.3203 21.0859 19.3906 21.0547 19.4531C21.0391 19.4844 21.0234 19.5234 21.0078 19.5703C20.9922 19.6172 20.9766 19.6641 20.9609 19.7109C20.9297 19.8203 20.8906 19.9531 20.8438 20.1094C20.7969 20.2656 20.7344 20.3672 20.6562 20.4141C20.4844 20.5078 20.3281 20.5156 20.1875 20.4375C20.0469 20.375 19.9297 20.2891 19.8359 20.1797C19.8359 20.1016 19.8203 20.0469 19.7891 20.0156C19.7578 19.9844 19.75 19.9297 19.7656 19.8516C19.6875 19.7734 19.6406 19.7188 19.625 19.6875C19.6094 19.6562 19.5859 19.6328 19.5547 19.6172C19.5703 19.4453 19.5312 19.3516 19.4375 19.3359C19.3594 19.3047 19.3047 19.2578 19.2734 19.1953C19.2891 19.0391 19.2578 18.9453 19.1797 18.9141C19.1172 18.8828 19.1016 18.8047 19.1328 18.6797C19.0391 18.6172 18.9844 18.5703 18.9688 18.5391C18.9531 18.5078 18.9297 18.4766 18.8984 18.4453C18.8203 18.3672 18.7578 18.25 18.7109 18.0938C18.6797 17.9219 18.625 17.7734 18.5469 17.6484L18.1953 17.2266C18.1484 17.1641 18.1016 17.0859 18.0547 16.9922C18.0234 16.8828 17.9688 16.7891 17.8906 16.7109C17.8438 16.4453 17.7734 16.2188 17.6797 16.0312C17.6328 15.9062 17.5625 15.7969 17.4688 15.7031C17.3906 15.5938 17.3359 15.4766 17.3047 15.3516C17.2266 15.3047 17.1719 15.2422 17.1406 15.1641C17.125 15.0859 17.0781 15.0234 17 14.9766C17 14.8359 16.9609 14.7188 16.8828 14.625C16.8047 14.5312 16.7344 14.4297 16.6719 14.3203C16.6406 14.2578 16.6172 14.1953 16.6016 14.1328C16.5859 14.0547 16.5391 13.9844 16.4609 13.9219C16.4141 13.8281 16.3672 13.7422 16.3203 13.6641C16.2891 13.5703 16.2422 13.4766 16.1797 13.3828C16.1641 13.3516 16.1328 13.3125 16.0859 13.2656C16.0547 13.2188 16.0234 13.1719 15.9922 13.125C15.9609 13.0469 15.9453 12.9844 15.9453 12.9375C15.9609 12.8906 15.9531 12.8438 15.9219 12.7969C15.8906 12.6875 15.8438 12.5938 15.7812 12.5156C15.7188 12.4219 15.6875 12.3125 15.6875 12.1875C15.6094 12.1094 15.5469 12.0234 15.5 11.9297C15.4688 11.8359 15.4219 11.7422 15.3594 11.6484C15.2344 11.4609 15.1484 11.3125 15.1016 11.2031C15.0703 11.0938 15.0391 10.9688 15.0078 10.8281C14.9922 10.75 14.9844 10.6719 14.9844 10.5938C14.9844 10.5 14.9688 10.4297 14.9375 10.3828C14.8906 10.3047 14.8672 10.2344 14.8672 10.1719C14.8672 10.1094 14.8516 10.0625 14.8203 10.0312C14.7578 9.89062 14.7188 9.79688 14.7031 9.75C14.6875 9.70312 14.6719 9.66406 14.6562 9.63281C14.5781 9.49219 14.4922 9.35938 14.3984 9.23438C14.3047 9.10938 14.25 8.96875 14.2344 8.8125C14.1094 8.70312 14.0156 8.57031 13.9531 8.41406C13.9062 8.24219 13.8125 8.11719 13.6719 8.03906C13.6406 7.88281 13.5859 7.76562 13.5078 7.6875C13.4297 7.59375 13.3594 7.5 13.2969 7.40625C13.1719 7.28125 13.0547 7.21094 12.9453 7.19531C12.8516 7.17969 12.7656 7.15625 12.6875 7.125C12.6406 7.04688 12.6016 6.96875 12.5703 6.89062C12.5234 6.79688 12.4922 6.70312 12.4766 6.60938C12.5078 6.51562 12.5781 6.46094 12.6875 6.44531C12.7969 6.41406 12.9141 6.40625 13.0391 6.42188C13.1016 6.40625 13.1562 6.38281 13.2031 6.35156C13.25 6.32031 13.3125 6.29688 13.3906 6.28125C13.5156 6.25 13.6562 6.24219 13.8125 6.25781C13.9844 6.25781 14.1406 6.24219 14.2812 6.21094C14.3281 6.21094 14.375 6.20312 14.4219 6.1875C14.4844 6.17188 14.5391 6.15625 14.5859 6.14062C14.6172 6.14062 14.6484 6.14844 14.6797 6.16406C14.7266 6.17969 14.7812 6.1875 14.8438 6.1875C15.0156 6.17188 15.1484 6.17188 15.2422 6.1875C15.3516 6.1875 15.4609 6.17969 15.5703 6.16406C15.6484 6.16406 15.7266 6.15625 15.8047 6.14062C15.8828 6.10938 15.9609 6.10156 16.0391 6.11719C16.1641 6.13281 16.2656 6.125 16.3438 6.09375C16.4375 6.0625 16.5078 6.05469 16.5547 6.07031C16.6797 6.17969 16.7422 6.25 16.7422 6.28125C16.7578 6.29688 16.7812 6.32031 16.8125 6.35156C16.8594 6.42969 16.875 6.49219 16.8594 6.53906C16.8594 6.57031 16.8672 6.60938 16.8828 6.65625C16.9453 6.78125 16.9766 6.92188 16.9766 7.07812C16.9766 7.21875 16.9922 7.32812 17.0234 7.40625C17.0391 7.48438 17.0703 7.57031 17.1172 7.66406C17.1641 7.74219 17.2031 7.82031 17.2344 7.89844C17.25 7.96094 17.2656 8.01562 17.2812 8.0625C17.2969 8.09375 17.3125 8.13281 17.3281 8.17969C17.4062 8.32031 17.4688 8.5 17.5156 8.71875C17.5625 8.9375 17.6016 9.14844 17.6328 9.35156C17.6484 9.42969 17.6797 9.48438 17.7266 9.51562C17.7734 9.54688 17.8203 9.57812 17.8672 9.60938C17.8984 9.75 17.9375 9.89062 17.9844 10.0312C18.0469 10.1719 18.1016 10.3125 18.1484 10.4531C18.1797 10.5312 18.1953 10.5859 18.1953 10.6172C18.1953 10.6484 18.2031 10.6797 18.2188 10.7109C18.25 10.7891 18.2812 10.8672 18.3125 10.9453C18.3594 11.0234 18.3984 11.1094 18.4297 11.2031C18.4766 11.2812 18.5156 11.3594 18.5469 11.4375C18.5781 11.5156 18.6094 11.6016 18.6406 11.6953C18.7188 11.8672 18.7578 11.9922 18.7578 12.0703C18.7734 12.1328 18.7891 12.1797 18.8047 12.2109C18.8672 12.2734 18.9062 12.3281 18.9219 12.375C18.9375 12.4219 18.9609 12.4688 18.9922 12.5156C19.0234 12.5781 19.0625 12.6797 19.1094 12.8203C19.1719 12.9453 19.1875 13.0781 19.1562 13.2188C19.2188 13.2812 19.2578 13.3594 19.2734 13.4531C19.2891 13.5469 19.3359 13.6094 19.4141 13.6406C19.3984 13.7969 19.4297 13.9141 19.5078 13.9922C19.6016 14.0547 19.6484 14.1641 19.6484 14.3203C19.7266 14.3203 19.7734 14.2891 19.7891 14.2266C19.8203 14.1641 19.8516 14.1094 19.8828 14.0625C19.9609 13.8906 20.0234 13.7109 20.0703 13.5234C20.1328 13.3359 20.2031 13.1484 20.2812 12.9609C20.3438 12.8359 20.375 12.75 20.375 12.7031C20.3906 12.6562 20.4062 12.6172 20.4219 12.5859C20.5 12.5078 20.5391 12.4453 20.5391 12.3984C20.5547 12.3516 20.5703 12.3125 20.5859 12.2812C20.6484 12.2031 20.6797 12.1328 20.6797 12.0703C20.6953 12.0078 20.7188 11.9609 20.75 11.9297C20.8125 11.8672 20.8516 11.8125 20.8672 11.7656C20.8828 11.7188 20.9219 11.6953 20.9844 11.6953C20.9688 11.6172 20.9766 11.5547 21.0078 11.5078C21.0391 11.4453 21.0469 11.375 21.0312 11.2969C21.1406 11.1562 21.2109 10.9688 21.2422 10.7344C21.3047 10.6562 21.3438 10.5859 21.3594 10.5234C21.375 10.4609 21.3984 10.3984 21.4297 10.3359C21.4609 10.2734 21.4922 10.2266 21.5234 10.1953C21.5703 10.1484 21.6016 10.1016 21.6172 10.0547C21.6484 9.94531 21.6641 9.84375 21.6641 9.75C21.6641 9.64062 21.6797 9.53906 21.7109 9.44531C21.7578 9.32031 21.7812 9.23438 21.7812 9.1875C21.7969 9.14062 21.8125 9.10156 21.8281 9.07031C21.9062 8.85156 21.9688 8.6875 22.0156 8.57812C22.0781 8.46875 22.1328 8.35938 22.1797 8.25C22.2734 8.01562 22.3438 7.875 22.3906 7.82812C22.4062 7.78125 22.4297 7.74219 22.4609 7.71094C22.5078 7.66406 22.5391 7.625 22.5547 7.59375C22.5859 7.45312 22.6094 7.36719 22.625 7.33594C22.6562 7.28906 22.6719 7.25 22.6719 7.21875C22.7344 7.04688 22.7891 6.89844 22.8359 6.77344C22.8828 6.63281 22.9531 6.5 23.0469 6.375C23.0781 6.39062 23.1094 6.38281 23.1406 6.35156C23.1719 6.32031 23.2266 6.30469 23.3047 6.30469C23.3672 6.30469 23.4297 6.3125 23.4922 6.32812C23.5703 6.34375 23.6562 6.33594 23.75 6.30469C23.875 6.27344 23.9688 6.25781 24.0312 6.25781C24.1094 6.25781 24.1875 6.25781 24.2656 6.25781C24.3125 6.25781 24.375 6.25 24.4531 6.23438C24.5312 6.21875 24.6094 6.21094 24.6875 6.21094C24.7344 6.22656 24.7734 6.25 24.8047 6.28125C24.8516 6.3125 24.9062 6.32812 24.9688 6.32812C24.9844 6.34375 25.0234 6.34375 25.0859 6.32812C25.1641 6.3125 25.2266 6.30469 25.2734 6.30469C25.3203 6.30469 25.375 6.3125 25.4375 6.32812C25.5156 6.32812 25.5703 6.32031 25.6016 6.30469C25.6797 6.30469 25.7578 6.28906 25.8359 6.25781C25.9297 6.22656 26.0391 6.22656 26.1641 6.25781C26.2734 6.28906 26.3594 6.35156 26.4219 6.44531C26.4844 6.52344 26.5312 6.60156 26.5625 6.67969ZM40.7422 13.1016C40.7266 13.3203 40.7266 13.4688 40.7422 13.5469C40.7578 13.625 40.7422 13.7109 40.6953 13.8047C40.6641 13.8672 40.6016 13.9141 40.5078 13.9453C40.4297 13.9766 40.375 14.0234 40.3438 14.0859C40.25 14.0547 40.1484 14.0469 40.0391 14.0625C39.9297 14.0625 39.8359 14.0781 39.7578 14.1094C39.6484 14.0156 39.4922 13.9766 39.2891 13.9922C39.1016 14.0078 38.9453 13.9688 38.8203 13.875C38.7266 13.9219 38.6406 13.9453 38.5625 13.9453C38.3438 13.9766 38.1094 13.9688 37.8594 13.9219C37.625 13.875 37.3828 13.8359 37.1328 13.8047C36.9609 13.7891 36.7812 13.7812 36.5938 13.7812C36.4062 13.7812 36.2422 13.7812 36.1016 13.7812C35.9453 13.8125 35.8203 13.8281 35.7266 13.8281C35.6016 13.8125 35.4844 13.7812 35.375 13.7344C35.2812 13.6875 35.1719 13.6641 35.0469 13.6641C34.9531 13.6484 34.8516 13.6562 34.7422 13.6875C34.6484 13.7031 34.5547 13.7109 34.4609 13.7109C34.3672 13.7109 34.2422 13.6953 34.0859 13.6641C33.9609 13.6797 33.875 13.6875 33.8281 13.6875C33.7812 13.6719 33.7422 13.6641 33.7109 13.6641C33.6016 13.6641 33.4922 13.6719 33.3828 13.6875C33.2891 13.7031 33.2031 13.6641 33.125 13.5703C33.0625 13.6172 33.0078 13.6484 32.9609 13.6641C32.9141 13.6797 32.8281 13.6875 32.7031 13.6875C32.625 13.6719 32.5625 13.6641 32.5156 13.6641C32.4844 13.6484 32.4531 13.6406 32.4219 13.6406C32.3125 13.6719 32.2188 13.6797 32.1406 13.6641C32.0781 13.6484 32.0156 13.6719 31.9531 13.7344C31.9219 13.7031 31.8672 13.6953 31.7891 13.7109C31.7109 13.7109 31.6562 13.6953 31.625 13.6641C31.4219 13.6328 31.2578 13.6328 31.1328 13.6641C31.0078 13.6953 30.875 13.7109 30.7344 13.7109C30.6094 13.7109 30.4844 13.6953 30.3594 13.6641C30.25 13.6328 30.1094 13.6328 29.9375 13.6641C29.8594 13.8047 29.8281 13.9844 29.8438 14.2031C29.875 14.4062 29.9375 14.5703 30.0312 14.6953C30.0469 14.7734 30.0391 14.8359 30.0078 14.8828C29.9922 14.9297 29.9844 14.9922 29.9844 15.0703C30.1094 15.2422 30.2109 15.3672 30.2891 15.4453C30.3828 15.5234 30.4531 15.6016 30.5 15.6797C30.5781 15.8047 30.6719 15.9219 30.7812 16.0312C30.8906 16.1406 30.9922 16.2656 31.0859 16.4062C31.1172 16.4844 31.1562 16.5469 31.2031 16.5938C31.2656 16.6406 31.3203 16.7031 31.3672 16.7812C31.4922 16.8125 31.5938 16.8594 31.6719 16.9219C31.7656 16.9844 31.875 17.0547 32 17.1328C32.1719 17.2266 32.2891 17.3125 32.3516 17.3906C32.4297 17.4531 32.5234 17.5078 32.6328 17.5547C32.7109 17.5859 32.7734 17.6016 32.8203 17.6016C32.8672 17.5859 32.9141 17.5859 32.9609 17.6016C33.0391 17.6328 33.125 17.6875 33.2188 17.7656C33.3125 17.8438 33.4141 17.8906 33.5234 17.9062C33.6953 17.8906 33.8203 17.8906 33.8984 17.9062C33.9766 17.9062 34.0469 17.9141 34.1094 17.9297C34.3125 17.9453 34.5 17.8984 34.6719 17.7891C34.75 17.7891 34.8125 17.7891 34.8594 17.7891C34.9062 17.7891 34.9688 17.7812 35.0469 17.7656C35.1875 17.6719 35.2891 17.625 35.3516 17.625C35.4297 17.625 35.4922 17.6094 35.5391 17.5781C35.5859 17.5312 35.625 17.5078 35.6562 17.5078C35.7031 17.4922 35.7422 17.4766 35.7734 17.4609C35.8672 17.4297 35.9453 17.3906 36.0078 17.3438C36.0859 17.2969 36.1641 17.2422 36.2422 17.1797C36.3516 17.1172 36.4531 17.0469 36.5469 16.9688C36.7031 16.875 36.8359 16.7422 36.9453 16.5703C37.0703 16.3984 37.2031 16.25 37.3438 16.125C37.3594 15.9375 37.3906 15.7812 37.4375 15.6562C37.4844 15.5312 37.5469 15.4141 37.625 15.3047C37.625 15.1328 37.6406 15 37.6719 14.9062C37.7188 14.7969 37.7734 14.6953 37.8359 14.6016C37.9141 14.5859 37.9844 14.5703 38.0469 14.5547C38.1094 14.5391 38.1875 14.5469 38.2812 14.5781C38.3281 14.6094 38.3672 14.6406 38.3984 14.6719C38.4453 14.6875 38.5078 14.7109 38.5859 14.7422C38.6328 14.7734 38.6797 14.7969 38.7266 14.8125C38.7891 14.8125 38.875 14.8281 38.9844 14.8594C39.0938 14.9062 39.1719 14.9297 39.2188 14.9297C39.2656 14.9297 39.3125 14.9375 39.3594 14.9531C39.4844 15.0156 39.5938 15.0391 39.6875 15.0234C39.7969 15.0078 39.8906 15.0156 39.9688 15.0469C40.1406 15.1719 40.2422 15.2656 40.2734 15.3281C40.2734 15.5156 40.2188 15.6875 40.1094 15.8438C40.0312 16.0156 39.9922 16.125 39.9922 16.1719C40.0078 16.2031 40.0078 16.2578 39.9922 16.3359C39.9766 16.3828 39.9531 16.4219 39.9219 16.4531C39.8906 16.4844 39.8672 16.5312 39.8516 16.5938C39.8203 16.6875 39.7969 16.7812 39.7812 16.875C39.7656 16.9531 39.7344 17.0391 39.6875 17.1328C39.5625 17.2891 39.4609 17.4062 39.3828 17.4844C39.3203 17.5469 39.25 17.5938 39.1719 17.625C39.2031 17.7031 39.1875 17.7656 39.125 17.8125C39.0625 17.8438 39.0156 17.875 38.9844 17.9062C38.9375 18.0156 38.8672 18.1016 38.7734 18.1641C38.6953 18.2266 38.6016 18.2969 38.4922 18.375C38.3672 18.4844 38.2344 18.5781 38.0938 18.6562C37.9688 18.7344 37.8438 18.8125 37.7188 18.8906C37.5469 19.0312 37.4297 19.1328 37.3672 19.1953C37.3047 19.2422 37.2266 19.2812 37.1328 19.3125C37.0547 19.3438 36.9922 19.375 36.9453 19.4062C36.9141 19.4219 36.8906 19.4297 36.875 19.4297C36.7969 19.4609 36.7109 19.4766 36.6172 19.4766C36.5234 19.4766 36.4297 19.4922 36.3359 19.5234C36.1641 19.5859 36.0156 19.625 35.8906 19.6406C35.7656 19.6719 35.6406 19.7031 35.5156 19.7344C35.4375 19.7656 35.3672 19.7891 35.3047 19.8047C35.2422 19.8203 35.1484 19.8203 35.0234 19.8047C34.8672 19.7734 34.75 19.7812 34.6719 19.8281C34.5938 19.875 34.5156 19.8672 34.4375 19.8047C34.2656 19.8359 34.1172 19.8672 33.9922 19.8984C33.8828 19.9297 33.7812 19.9375 33.6875 19.9219C33.6406 19.9219 33.5938 19.9141 33.5469 19.8984C33.5 19.8828 33.4531 19.8672 33.4062 19.8516C33.1094 19.8047 32.8672 19.7734 32.6797 19.7578C32.5078 19.7422 32.3516 19.7109 32.2109 19.6641C32.1641 19.6484 32.1172 19.6406 32.0703 19.6406C32.0234 19.6406 31.9844 19.6094 31.9531 19.5469C31.7969 19.5781 31.6484 19.5625 31.5078 19.5C31.3828 19.4219 31.2812 19.3438 31.2031 19.2656C31.1562 19.2656 31.1094 19.2578 31.0625 19.2422C31.0312 19.2266 30.9922 19.2109 30.9453 19.1953C30.8359 19.1484 30.7266 19.1016 30.6172 19.0547C30.5078 18.9922 30.4219 18.8984 30.3594 18.7734C30.2344 18.7734 30.1406 18.7422 30.0781 18.6797C30.0312 18.6172 29.9688 18.5547 29.8906 18.4922C29.7656 18.4922 29.6484 18.4609 29.5391 18.3984C29.4453 18.3203 29.3672 18.2344 29.3047 18.1406C29.1797 17.9844 29.0625 17.8594 28.9531 17.7656C28.7812 17.5938 28.6484 17.4531 28.5547 17.3438C28.4609 17.2188 28.3438 17.1328 28.2031 17.0859C28.1719 16.9922 28.125 16.9141 28.0625 16.8516C28 16.7891 27.9375 16.7188 27.875 16.6406C27.7969 16.4844 27.7422 16.3828 27.7109 16.3359C27.6797 16.2891 27.6484 16.25 27.6172 16.2188C27.5859 16.0938 27.5547 15.9766 27.5234 15.8672C27.5078 15.7422 27.4844 15.6172 27.4531 15.4922C27.4062 15.3203 27.3828 15.1953 27.3828 15.1172C27.3828 15.0391 27.375 14.9609 27.3594 14.8828C27.3438 14.8359 27.3203 14.7891 27.2891 14.7422C27.2734 14.6953 27.2578 14.6484 27.2422 14.6016C27.2266 14.5234 27.2188 14.4453 27.2188 14.3672C27.2344 14.2891 27.2344 14.2031 27.2188 14.1094C27.2031 14.0312 27.1875 13.9609 27.1719 13.8984C27.1562 13.8203 27.1484 13.7422 27.1484 13.6641C27.1484 13.5547 27.1562 13.4453 27.1719 13.3359C27.1875 13.2109 27.1953 13.0859 27.1953 12.9609C27.1953 12.9297 27.1875 12.8906 27.1719 12.8438C27.1719 12.7812 27.1719 12.7344 27.1719 12.7031C27.1875 12.625 27.2109 12.5469 27.2422 12.4688C27.2891 12.375 27.3203 12.2891 27.3359 12.2109C27.3047 12.0703 27.2969 11.9688 27.3125 11.9062C27.3438 11.8438 27.3438 11.7969 27.3125 11.7656C27.3438 11.7344 27.3672 11.6953 27.3828 11.6484C27.3984 11.5859 27.4141 11.5391 27.4297 11.5078C27.4453 11.4609 27.4531 11.4062 27.4531 11.3438C27.4531 11.2812 27.4688 11.2109 27.5 11.1328C27.5781 11.0078 27.625 10.9375 27.6406 10.9219C27.6719 10.8906 27.6953 10.8672 27.7109 10.8516C27.7266 10.7422 27.7422 10.6719 27.7578 10.6406C27.7734 10.5938 27.7969 10.5547 27.8281 10.5234C27.9062 10.3672 27.9531 10.2734 27.9688 10.2422C28 10.2109 28.0234 10.1797 28.0391 10.1484C28.0547 10.0234 28.0703 9.95312 28.0859 9.9375C28.1016 9.92188 28.1172 9.89844 28.1328 9.86719C28.1641 9.77344 28.1797 9.69531 28.1797 9.63281C28.1953 9.55469 28.2188 9.47656 28.25 9.39844C28.2812 9.32031 28.3203 9.24219 28.3672 9.16406C28.4141 9.07031 28.4766 8.99219 28.5547 8.92969C28.6328 8.74219 28.7031 8.58594 28.7656 8.46094C28.8281 8.32031 28.8906 8.1875 28.9531 8.0625C29.0938 7.95312 29.2109 7.82812 29.3047 7.6875C29.4141 7.54688 29.5391 7.42188 29.6797 7.3125C29.7109 7.28125 29.7422 7.26562 29.7734 7.26562C29.8203 7.25 29.875 7.22656 29.9375 7.19531C30.1094 7.07031 30.2344 6.97656 30.3125 6.91406C30.3906 6.83594 30.4844 6.77344 30.5938 6.72656C30.6875 6.69531 30.8281 6.67969 31.0156 6.67969C31.2188 6.66406 31.3594 6.60156 31.4375 6.49219C31.5312 6.49219 31.625 6.47656 31.7188 6.44531C31.8125 6.39844 31.9062 6.35156 32 6.30469C32.0625 6.27344 32.1328 6.24219 32.2109 6.21094C32.2891 6.16406 32.3984 6.14844 32.5391 6.16406C32.6484 6.17969 32.75 6.1875 32.8438 6.1875C32.9531 6.17188 33.0703 6.14844 33.1953 6.11719C33.2578 6.10156 33.3281 6.08594 33.4062 6.07031C33.4844 6.05469 33.5703 6.04688 33.6641 6.04688C33.8984 6.07812 34.0781 6.09375 34.2031 6.09375C34.3438 6.09375 34.5 6.10156 34.6719 6.11719C34.75 6.11719 34.8281 6.10938 34.9062 6.09375C35 6.0625 35.0938 6.04688 35.1875 6.04688C35.2656 6.0625 35.3359 6.07031 35.3984 6.07031C35.4766 6.07031 35.5547 6.07812 35.6328 6.09375C35.7422 6.125 35.8047 6.14062 35.8203 6.14062C35.8516 6.14062 35.875 6.14062 35.8906 6.14062C35.9688 6.15625 36.0312 6.1875 36.0781 6.23438C36.1406 6.26562 36.2109 6.29688 36.2891 6.32812C36.3203 6.35938 36.3594 6.375 36.4062 6.375C36.4688 6.375 36.5156 6.39062 36.5469 6.42188C36.6094 6.4375 36.7031 6.47656 36.8281 6.53906C36.9375 6.57031 37.0391 6.60156 37.1328 6.63281C37.2266 6.66406 37.2891 6.73438 37.3203 6.84375C37.4922 6.89062 37.6172 6.95312 37.6953 7.03125C37.7891 7.10938 37.875 7.17188 37.9531 7.21875C38.0156 7.26562 38.0781 7.33594 38.1406 7.42969C38.2031 7.50781 38.2734 7.57031 38.3516 7.61719C38.3672 7.66406 38.3828 7.70312 38.3984 7.73438C38.4297 7.76562 38.4531 7.8125 38.4688 7.875C38.5938 7.95312 38.7031 8.05469 38.7969 8.17969C38.8906 8.28906 39.0234 8.375 39.1953 8.4375C39.2422 8.54688 39.2969 8.64062 39.3594 8.71875C39.4219 8.79688 39.4609 8.90625 39.4766 9.04688C39.5078 9.09375 39.5391 9.14844 39.5703 9.21094C39.6172 9.25781 39.6641 9.32031 39.7109 9.39844C39.7266 9.42969 39.75 9.46875 39.7812 9.51562C39.8281 9.5625 39.8594 9.60938 39.875 9.65625C39.9531 9.82812 40.0391 9.99219 40.1328 10.1484C40.1641 10.1953 40.2031 10.25 40.25 10.3125C40.3125 10.375 40.3594 10.4453 40.3906 10.5234C40.4062 10.5859 40.4141 10.6484 40.4141 10.7109C40.4141 10.7734 40.4219 10.8359 40.4375 10.8984C40.4688 10.9766 40.4922 11.0469 40.5078 11.1094C40.5234 11.1562 40.5391 11.1953 40.5547 11.2266C40.5859 11.3516 40.5938 11.4766 40.5781 11.6016C40.5625 11.7109 40.5625 11.8281 40.5781 11.9531C40.5938 12.0469 40.6016 12.1484 40.6016 12.2578C40.6172 12.3516 40.6328 12.4453 40.6484 12.5391C40.6484 12.6641 40.6562 12.7656 40.6719 12.8438L40.7422 13.1016ZM37.3906 11.2266C37.4219 11.1953 37.4219 11.1406 37.3906 11.0625C37.375 10.9844 37.3359 10.9297 37.2734 10.8984C37.2422 10.7891 37.1953 10.7266 37.1328 10.7109C37.0859 10.6797 37.0859 10.6328 37.1328 10.5703C37.0859 10.5234 37.0234 10.4844 36.9453 10.4531C36.8672 10.4219 36.8359 10.3594 36.8516 10.2656C36.7734 10.2812 36.7188 10.2656 36.6875 10.2188C36.6719 10.1562 36.6484 10.1172 36.6172 10.1016C36.5078 10.0234 36.4375 9.94531 36.4062 9.86719C36.375 9.78906 36.3281 9.72656 36.2656 9.67969C36.2188 9.64844 36.1641 9.64844 36.1016 9.67969C36.0547 9.69531 36.0312 9.65625 36.0312 9.5625C35.7812 9.57812 35.5859 9.53906 35.4453 9.44531C35.3203 9.33594 35.1953 9.21875 35.0703 9.09375C34.9297 9.125 34.7734 9.13281 34.6016 9.11719C34.4297 9.10156 34.2656 9.10156 34.1094 9.11719C33.9844 9.03906 33.8672 9.00781 33.7578 9.02344C33.6641 9.02344 33.5469 9 33.4062 8.95312C33.3438 8.9375 33.3047 8.90625 33.2891 8.85938C33.2891 8.79688 33.25 8.76562 33.1719 8.76562C33.0625 8.8125 32.9531 8.8125 32.8438 8.76562C32.75 8.71875 32.6406 8.6875 32.5156 8.67188C32.3906 8.75 32.2578 8.80469 32.1172 8.83594C31.9766 8.85156 31.8359 8.88281 31.6953 8.92969C31.6172 8.96094 31.5312 9.03906 31.4375 9.16406C31.3438 9.27344 31.2734 9.35156 31.2266 9.39844C31.1172 9.52344 31.0078 9.64844 30.8984 9.77344C30.7891 9.89844 30.6875 10.0234 30.5938 10.1484C30.6094 10.2422 30.6016 10.3203 30.5703 10.3828C30.5391 10.4297 30.5312 10.4922 30.5469 10.5703C30.4375 10.6484 30.3594 10.7734 30.3125 10.9453C30.2812 11.1016 30.25 11.2578 30.2188 11.4141C30.3281 11.4297 30.4531 11.4297 30.5938 11.4141C30.7344 11.3984 30.8828 11.3828 31.0391 11.3672C31.0859 11.3516 31.1328 11.3438 31.1797 11.3438C31.2422 11.3438 31.2969 11.3438 31.3438 11.3438C31.5781 11.2969 31.7812 11.2812 31.9531 11.2969C32.125 11.2969 32.2812 11.2891 32.4219 11.2734C32.5781 11.2734 32.7266 11.2656 32.8672 11.25C33.0234 11.2188 33.1641 11.2344 33.2891 11.2969C33.4609 11.2188 33.6562 11.1875 33.875 11.2031C34.1094 11.2188 34.2969 11.2344 34.4375 11.25C34.5625 11.25 34.6328 11.2422 34.6484 11.2266C34.6641 11.2109 34.6797 11.2109 34.6953 11.2266C35.1484 11.1953 35.5938 11.2109 36.0312 11.2734C36.4844 11.3203 36.9375 11.3047 37.3906 11.2266ZM56 19.7812C56.0156 19.8594 55.9922 19.9062 55.9297 19.9219C55.8828 19.9375 55.8438 19.9766 55.8125 20.0391C55.7812 20.0703 55.7578 20.1094 55.7422 20.1562C55.7422 20.2188 55.7109 20.25 55.6484 20.25C55.5391 20.25 55.4688 20.2578 55.4375 20.2734C55.4062 20.2891 55.375 20.2891 55.3438 20.2734C55.2969 20.2734 55.25 20.2578 55.2031 20.2266C55.1562 20.1953 55.0938 20.1719 55.0156 20.1562C54.8594 20.1406 54.7031 20.1484 54.5469 20.1797C54.4062 20.2109 54.2656 20.2266 54.125 20.2266C54.0781 20.2266 54.0234 20.2188 53.9609 20.2031C53.9141 20.1875 53.8672 20.1797 53.8203 20.1797C53.6641 20.1797 53.5156 20.1797 53.375 20.1797C53.2344 20.1953 53.0859 20.1875 52.9297 20.1562C52.8672 20.1406 52.8047 20.1172 52.7422 20.0859C52.6953 20.0547 52.6328 20.0469 52.5547 20.0625C52.5391 19.9844 52.5 19.9297 52.4375 19.8984C52.3906 19.8672 52.3594 19.8125 52.3438 19.7344C52.3125 19.5938 52.3281 19.4453 52.3906 19.2891C52.4531 19.1328 52.4688 18.9844 52.4375 18.8438C52.5312 18.6719 52.5859 18.5 52.6016 18.3281C52.5859 18.25 52.5781 18.1797 52.5781 18.1172C52.5938 18.0391 52.6016 17.9844 52.6016 17.9531C52.6328 17.875 52.6406 17.7578 52.625 17.6016C52.6094 17.4453 52.6094 17.2969 52.625 17.1562C52.6406 17 52.6484 16.8438 52.6484 16.6875C52.6484 16.5156 52.6484 16.3281 52.6484 16.125C52.6328 15.9531 52.6172 15.8359 52.6016 15.7734C52.5859 15.6953 52.5703 15.625 52.5547 15.5625C52.5859 15.4062 52.5938 15.3203 52.5781 15.3047C52.5625 15.2734 52.5547 15.2344 52.5547 15.1875C52.5703 15.0312 52.5625 14.9219 52.5312 14.8594C52.5156 14.7969 52.5 14.7344 52.4844 14.6719C52.4844 14.625 52.4922 14.5859 52.5078 14.5547C52.5234 14.5078 52.5312 14.4609 52.5312 14.4141C52.5312 14.2422 52.5234 14.1172 52.5078 14.0391C52.4922 13.9453 52.4766 13.8594 52.4609 13.7812C52.4609 13.7188 52.4688 13.6562 52.4844 13.5938C52.5 13.5156 52.4688 13.4609 52.3906 13.4297C52.4219 13.3828 52.4375 13.2969 52.4375 13.1719C52.4062 13 52.3906 12.875 52.3906 12.7969C52.3906 12.7188 52.3906 12.6562 52.3906 12.6094C52.3594 12.5 52.3438 12.4375 52.3438 12.4219C52.3438 12.3906 52.3438 12.3672 52.3438 12.3516C52.3281 12.2891 52.3047 12.2188 52.2734 12.1406C52.2578 12.0469 52.2344 11.9609 52.2031 11.8828C52.2344 11.7891 52.2344 11.7031 52.2031 11.625C52.1875 11.5312 52.1641 11.4375 52.1328 11.3438C52.1016 11.2188 52.0703 11.1484 52.0391 11.1328C52.0234 11.1016 52.0078 11.0703 51.9922 11.0391C51.8984 10.8047 51.8125 10.5938 51.7344 10.4062C51.6719 10.2031 51.625 9.97656 51.5938 9.72656C51.5156 9.63281 51.4297 9.54688 51.3359 9.46875C51.2578 9.39062 51.1953 9.28906 51.1484 9.16406C50.9766 9.07031 50.8281 8.99219 50.7031 8.92969C50.5938 8.85156 50.4062 8.82812 50.1406 8.85938C50.0938 8.85938 50.0391 8.875 49.9766 8.90625C49.9141 8.92188 49.8516 8.9375 49.7891 8.95312C49.6641 9 49.5469 9.03906 49.4375 9.07031C49.3438 9.08594 49.2422 9.125 49.1328 9.1875C49.0391 9.26562 48.9688 9.30469 48.9219 9.30469C48.8906 9.30469 48.8672 9.3125 48.8516 9.32812C48.8047 9.35938 48.7656 9.40625 48.7344 9.46875C48.7031 9.51562 48.6719 9.55469 48.6406 9.58594C48.5625 9.67969 48.5078 9.75 48.4766 9.79688C48.4609 9.82812 48.4375 9.85938 48.4062 9.89062C48.375 9.9375 48.3281 10 48.2656 10.0781C48.2031 10.1406 48.1406 10.1875 48.0781 10.2188C48.0781 10.2812 48.0547 10.3281 48.0078 10.3594C47.9609 10.3906 47.9219 10.4297 47.8906 10.4766C47.8594 10.5703 47.8281 10.625 47.7969 10.6406C47.7656 10.6562 47.7422 10.6719 47.7266 10.6875C47.6797 10.7656 47.6406 10.8594 47.6094 10.9688C47.5781 11.0781 47.5156 11.1562 47.4219 11.2031C47.4062 11.3438 47.375 11.4531 47.3281 11.5312C47.2812 11.6094 47.2188 11.6875 47.1406 11.7656C47.1562 11.9844 47.1172 12.1406 47.0234 12.2344C46.9297 12.3281 46.8516 12.4453 46.7891 12.5859C46.7578 12.7578 46.7266 12.8984 46.6953 13.0078C46.6797 13.1016 46.6562 13.1875 46.625 13.2656C46.5938 13.3438 46.5703 13.4297 46.5547 13.5234C46.5391 13.6016 46.5078 13.6719 46.4609 13.7344C46.4922 13.9531 46.4688 14.1641 46.3906 14.3672C46.3125 14.5703 46.2578 14.7891 46.2266 15.0234C46.2109 15.0703 46.2031 15.125 46.2031 15.1875C46.2188 15.25 46.2188 15.3047 46.2031 15.3516C46.1875 15.4922 46.1719 15.6641 46.1562 15.8672C46.1406 16.0547 46.125 16.2344 46.1094 16.4062C46.1094 16.4375 46.1094 16.4766 46.1094 16.5234C46.125 16.5703 46.1328 16.6172 46.1328 16.6641C46.1328 16.7734 46.1172 16.8828 46.0859 16.9922C46.0703 17.0859 46.0625 17.1875 46.0625 17.2969C46.0469 17.375 46.0547 17.4609 46.0859 17.5547C46.1172 17.6328 46.125 17.7109 46.1094 17.7891C46.0938 17.9297 46.0859 18.0391 46.0859 18.1172C46.1016 18.1953 46.1172 18.2656 46.1328 18.3281C46.1484 18.3906 46.1562 18.4531 46.1562 18.5156C46.1719 18.5625 46.2031 18.6016 46.25 18.6328C46.2188 18.7734 46.2188 18.9062 46.25 19.0312C46.2812 19.1562 46.3281 19.2734 46.3906 19.3828C46.4531 19.4766 46.4375 19.5938 46.3438 19.7344C46.2188 19.9062 46.0391 19.9688 45.8047 19.9219C45.5703 19.8906 45.3203 19.8828 45.0547 19.8984C44.9297 19.8984 44.8203 19.9062 44.7266 19.9219C44.6328 19.9375 44.5391 19.9453 44.4453 19.9453C44.3359 19.9609 44.2266 19.9766 44.1172 19.9922C44.0078 20.0078 43.9062 20 43.8125 19.9688C43.7656 19.9688 43.7188 19.9531 43.6719 19.9219C43.625 19.9062 43.5859 19.8828 43.5547 19.8516C43.4297 19.8047 43.3516 19.7656 43.3203 19.7344C43.2734 19.6562 43.25 19.5781 43.25 19.5C43.2656 19.4062 43.2656 19.3203 43.25 19.2422C43.25 19.1953 43.2344 19.1484 43.2031 19.1016C43.1875 19.0391 43.1797 18.9766 43.1797 18.9141C43.1797 18.7891 43.1875 18.6641 43.2031 18.5391C43.2188 18.4141 43.2344 18.2891 43.25 18.1641C43.25 18.0391 43.2578 17.9297 43.2734 17.8359C43.2891 17.7266 43.2969 17.625 43.2969 17.5312C43.2969 17.4531 43.2891 17.3672 43.2734 17.2734C43.2734 17.1797 43.3125 17.0938 43.3906 17.0156C43.3438 16.8906 43.3281 16.8125 43.3438 16.7812C43.375 16.7344 43.3906 16.7031 43.3906 16.6875C43.3906 16.6094 43.375 16.5078 43.3438 16.3828V15.5859C43.3281 15.4297 43.3125 15.2734 43.2969 15.1172C43.2812 14.9609 43.2656 14.7812 43.25 14.5781C43.25 14.5 43.2422 14.4375 43.2266 14.3906C43.2109 14.3438 43.2031 14.3047 43.2031 14.2734C43.2344 14.1484 43.2344 14.0625 43.2031 14.0156C43.1875 13.9531 43.1797 13.8984 43.1797 13.8516C43.1797 13.7266 43.1953 13.5859 43.2266 13.4297C43.2422 13.3828 43.2578 13.3438 43.2734 13.3125C43.2891 13.2656 43.3047 13.2188 43.3203 13.1719C43.2891 13.0469 43.2812 12.9609 43.2969 12.9141C43.3125 12.8672 43.3203 12.8281 43.3203 12.7969C43.3047 12.6719 43.2812 12.5312 43.25 12.375C43.2344 12.2188 43.2656 12.0547 43.3438 11.8828C43.3125 11.8047 43.2812 11.7188 43.25 11.625C43.2188 11.5312 43.2422 11.4531 43.3203 11.3906C43.2891 11.3125 43.2578 11.2422 43.2266 11.1797C43.1953 11.1016 43.1797 11.0078 43.1797 10.8984C43.2109 10.6797 43.2109 10.4609 43.1797 10.2422C43.1641 10.0234 43.1953 9.85938 43.2734 9.75C43.1953 9.625 43.1719 9.47656 43.2031 9.30469C43.2344 9.11719 43.2422 8.92969 43.2266 8.74219C43.2109 8.69531 43.1953 8.64844 43.1797 8.60156C43.1641 8.55469 43.1562 8.50781 43.1562 8.46094C43.125 8.33594 43.1172 8.21094 43.1328 8.08594C43.1484 7.96094 43.1484 7.84375 43.1328 7.73438C43.0547 7.51562 43.0078 7.3125 42.9922 7.125C42.9766 6.92188 42.9453 6.75781 42.8984 6.63281C42.9453 6.60156 42.9766 6.5625 42.9922 6.51562C43.0234 6.46875 43.0547 6.42188 43.0859 6.375C43.1953 6.34375 43.3203 6.33594 43.4609 6.35156C43.6172 6.36719 43.7188 6.42188 43.7656 6.51562C43.8438 6.45312 43.9219 6.42969 44 6.44531C44.0938 6.46094 44.1875 6.47656 44.2812 6.49219C44.3438 6.49219 44.4297 6.49219 44.5391 6.49219C44.6484 6.47656 44.7578 6.46875 44.8672 6.46875C45.0234 6.45312 45.1641 6.44531 45.2891 6.44531C45.4141 6.44531 45.5391 6.44531 45.6641 6.44531C45.7109 6.49219 45.75 6.53125 45.7812 6.5625C45.8125 6.59375 45.8438 6.64062 45.875 6.70312C45.9531 6.84375 46 7.04688 46.0156 7.3125C46.0469 7.5625 46.0781 7.79688 46.1094 8.01562C46.1875 8.03125 46.2266 8.00781 46.2266 7.94531C46.2422 7.88281 46.2656 7.83594 46.2969 7.80469C46.375 7.75781 46.4531 7.71094 46.5312 7.66406C46.6094 7.61719 46.6875 7.55469 46.7656 7.47656C46.8281 7.46094 46.875 7.44531 46.9062 7.42969C46.9531 7.39844 47.0156 7.39062 47.0938 7.40625C47.1406 7.375 47.1797 7.33594 47.2109 7.28906C47.2422 7.22656 47.2734 7.17969 47.3047 7.14844C47.3828 7.13281 47.4766 7.07031 47.5859 6.96094C47.6172 6.94531 47.6641 6.92969 47.7266 6.91406C47.7891 6.89844 47.8203 6.85938 47.8203 6.79688C47.9141 6.79688 47.9922 6.77344 48.0547 6.72656C48.1328 6.66406 48.2109 6.60938 48.2891 6.5625C48.4453 6.48438 48.5469 6.42969 48.5938 6.39844C48.6406 6.35156 48.6797 6.32031 48.7109 6.30469C48.7422 6.28906 48.7812 6.28906 48.8281 6.30469C48.8906 6.30469 48.9609 6.29688 49.0391 6.28125L49.3203 6.21094C49.4766 6.17969 49.5859 6.15625 49.6484 6.14062C49.7109 6.125 49.7656 6.11719 49.8125 6.11719C49.8906 6.10156 49.9688 6.09375 50.0469 6.09375C50.125 6.07812 50.1875 6.07031 50.2344 6.07031C50.3594 6.11719 50.4844 6.14062 50.6094 6.14062C50.7344 6.14062 50.8359 6.14844 50.9141 6.16406C51.0859 6.22656 51.2188 6.26562 51.3125 6.28125C51.4219 6.29688 51.5156 6.3125 51.5938 6.32812C51.6719 6.39062 51.7578 6.42969 51.8516 6.44531C51.9922 6.49219 52.0859 6.53125 52.1328 6.5625C52.1953 6.57812 52.2734 6.63281 52.3672 6.72656C52.3984 6.75781 52.4297 6.79688 52.4609 6.84375C52.4922 6.875 52.5078 6.91406 52.5078 6.96094C52.6016 7.03906 52.6875 7.10938 52.7656 7.17188C52.8594 7.23438 52.9531 7.3125 53.0469 7.40625C53.0781 7.4375 53.1016 7.47656 53.1172 7.52344C53.1328 7.57031 53.1562 7.60938 53.1875 7.64062C53.2344 7.6875 53.2812 7.72656 53.3281 7.75781C53.3906 7.78906 53.4453 7.82812 53.4922 7.875C53.5391 7.90625 53.5781 7.95312 53.6094 8.01562C53.6406 8.07812 53.6875 8.11719 53.75 8.13281C53.75 8.24219 53.7891 8.33594 53.8672 8.41406C53.9609 8.47656 54.0234 8.54688 54.0547 8.625C54.0859 8.70312 54.1016 8.78906 54.1016 8.88281C54.1172 8.96094 54.1641 9.03906 54.2422 9.11719C54.2578 9.25781 54.2969 9.39062 54.3594 9.51562C54.4375 9.64062 54.5078 9.77344 54.5703 9.91406C54.6016 9.99219 54.625 10.0703 54.6406 10.1484C54.6562 10.2109 54.6797 10.2812 54.7109 10.3594C54.7422 10.4375 54.7656 10.5078 54.7812 10.5703C54.7969 10.6172 54.8203 10.6719 54.8516 10.7344C54.8984 10.9062 54.9219 11.0234 54.9219 11.0859C54.9219 11.1328 54.9297 11.1797 54.9453 11.2266C55.0703 11.4766 55.1641 11.7578 55.2266 12.0703C55.2578 12.2266 55.2812 12.3281 55.2969 12.375C55.3125 12.4219 55.3203 12.4609 55.3203 12.4922C55.3359 12.5703 55.3438 12.6406 55.3438 12.7031C55.3438 12.7656 55.3516 12.8359 55.3672 12.9141C55.3672 12.9766 55.375 13.0391 55.3906 13.1016C55.4062 13.1641 55.4141 13.2266 55.4141 13.2891C55.4297 13.3516 55.4297 13.4141 55.4141 13.4766C55.3984 13.5234 55.3984 13.5859 55.4141 13.6641C55.4297 13.7891 55.4531 13.9219 55.4844 14.0625C55.5156 14.1875 55.5469 14.3125 55.5781 14.4375C55.6094 14.5156 55.6016 14.5703 55.5547 14.6016C55.5234 14.6328 55.5078 14.6797 55.5078 14.7422C55.5391 14.8047 55.5625 14.875 55.5781 14.9531C55.6094 15.0312 55.6328 15.1094 55.6484 15.1875C55.6484 15.2188 55.6406 15.2578 55.625 15.3047C55.6094 15.3516 55.6016 15.3984 55.6016 15.4453C55.6016 15.5391 55.6094 15.6406 55.625 15.75C55.6406 15.8594 55.6016 15.9531 55.5078 16.0312C55.5859 16.1719 55.6328 16.3359 55.6484 16.5234C55.6641 16.7109 55.6406 16.8828 55.5781 17.0391C55.5469 17.1172 55.5547 17.1641 55.6016 17.1797C55.6484 17.1797 55.6641 17.2188 55.6484 17.2969C55.5859 17.4219 55.5625 17.5391 55.5781 17.6484C55.6094 17.7422 55.6094 17.8516 55.5781 17.9766C55.5781 18.0547 55.5625 18.1172 55.5312 18.1641C55.5156 18.1953 55.5078 18.2422 55.5078 18.3047C55.4766 18.3672 55.4844 18.4375 55.5312 18.5156C55.5781 18.5781 55.5703 18.6484 55.5078 18.7266C55.5234 18.8047 55.5469 18.875 55.5781 18.9375C55.625 18.9844 55.6328 19.0781 55.6016 19.2188C55.6328 19.2656 55.6719 19.3047 55.7188 19.3359C55.7656 19.3516 55.8125 19.375 55.8594 19.4062C55.8281 19.5156 55.8438 19.5781 55.9062 19.5938C55.9688 19.625 56 19.6875 56 19.7812ZM65.0938 7.80469C65.0781 7.96094 65.0781 8.07031 65.0938 8.13281C65.1094 8.19531 65.1094 8.24219 65.0938 8.27344C65.0625 8.38281 65.0078 8.46094 64.9297 8.50781C64.8516 8.53906 64.7812 8.58594 64.7188 8.64844C64.5625 8.57031 64.4219 8.55469 64.2969 8.60156C64.1719 8.64844 64.0469 8.6875 63.9219 8.71875C63.8906 8.71875 63.8359 8.72656 63.7578 8.74219C63.6953 8.74219 63.6484 8.74219 63.6172 8.74219C63.4922 8.74219 63.375 8.76562 63.2656 8.8125C63.1562 8.85938 63.0547 8.89062 62.9609 8.90625C62.8828 8.92188 62.8125 8.92188 62.75 8.90625C62.6875 8.89062 62.6172 8.90625 62.5391 8.95312C62.4766 9.09375 62.4531 9.25 62.4688 9.42188C62.5 9.57812 62.5 9.74219 62.4688 9.91406C62.4375 10.1641 62.4297 10.3672 62.4453 10.5234C62.4766 10.6641 62.4922 10.7969 62.4922 10.9219C62.4922 11.0625 62.4844 11.1953 62.4688 11.3203C62.4688 11.4453 62.5 11.5625 62.5625 11.6719C62.5156 11.7656 62.4844 11.8828 62.4688 12.0234C62.4688 12.1484 62.4688 12.2734 62.4688 12.3984C62.4375 12.6172 62.4375 12.8672 62.4688 13.1484C62.5 13.4297 62.5156 13.6797 62.5156 13.8984C62.5 14.0078 62.4844 14.1094 62.4688 14.2031C62.4688 14.2812 62.4609 14.3672 62.4453 14.4609C62.4141 14.5859 62.4062 14.6641 62.4219 14.6953C62.4375 14.7266 62.4453 14.7578 62.4453 14.7891C62.4297 14.9453 62.4219 15.125 62.4219 15.3281C62.4375 15.5312 62.4375 15.7422 62.4219 15.9609C62.4219 16.1016 62.4141 16.2031 62.3984 16.2656C62.3828 16.3281 62.375 16.3828 62.375 16.4297C62.3906 16.5547 62.4062 16.6875 62.4219 16.8281C62.4531 16.9688 62.4141 17.1094 62.3047 17.25C62.3047 17.2969 62.3125 17.3438 62.3281 17.3906C62.3594 17.4219 62.3828 17.4609 62.3984 17.5078C62.3672 17.6328 62.3594 17.7266 62.375 17.7891C62.4062 17.8516 62.4219 17.8984 62.4219 17.9297C62.3906 18.1016 62.3828 18.25 62.3984 18.375C62.4141 18.4844 62.4297 18.5938 62.4453 18.7031C62.4453 19.1875 62.3438 19.5078 62.1406 19.6641C61.9375 19.6328 61.7344 19.6016 61.5312 19.5703C61.3438 19.5391 61.1484 19.5391 60.9453 19.5703C60.8516 19.5859 60.7578 19.6016 60.6641 19.6172C60.5703 19.6484 60.4609 19.6406 60.3359 19.5938C60.2578 19.6094 60.2031 19.625 60.1719 19.6406C60.1406 19.6719 60.0938 19.6875 60.0312 19.6875C59.9688 19.7031 59.9141 19.6875 59.8672 19.6406C59.8203 19.5938 59.7656 19.5625 59.7031 19.5469C59.6719 19.3594 59.6641 19.125 59.6797 18.8438C59.7109 18.5625 59.7188 18.2656 59.7031 17.9531C59.7031 17.875 59.6953 17.8125 59.6797 17.7656C59.6641 17.7031 59.6484 17.6328 59.6328 17.5547C59.6172 17.4453 59.6094 17.3359 59.6094 17.2266C59.625 17.1016 59.625 16.9766 59.6094 16.8516C59.6094 16.8047 59.6172 16.7578 59.6328 16.7109C59.6484 16.6484 59.6562 16.5938 59.6562 16.5469C59.6562 16.4844 59.6406 16.4531 59.6094 16.4531C59.5938 16.4375 59.5859 16.3828 59.5859 16.2891C59.5859 16.0859 59.6016 15.8984 59.6328 15.7266C59.6797 15.5547 59.7188 15.3828 59.75 15.2109C59.7188 15.0234 59.7031 14.8906 59.7031 14.8125C59.7031 14.7188 59.7031 14.6406 59.7031 14.5781C59.6875 14.5156 59.6641 14.4453 59.6328 14.3672C59.6016 14.2891 59.5859 14.2109 59.5859 14.1328C59.5859 14.0703 59.5859 14.0234 59.5859 13.9922C59.6016 13.9609 59.5938 13.9062 59.5625 13.8281C59.5469 13.5625 59.5469 13.3281 59.5625 13.125C59.5938 12.9062 59.6016 12.6953 59.5859 12.4922C59.5391 12.3203 59.5156 12.1875 59.5156 12.0938C59.5156 11.9844 59.5078 11.8906 59.4922 11.8125C59.4766 11.7031 59.4609 11.5859 59.4453 11.4609C59.4453 11.3359 59.4531 11.2031 59.4688 11.0625C59.4688 11 59.4766 10.9453 59.4922 10.8984C59.5078 10.8516 59.5156 10.7969 59.5156 10.7344C59.5156 10.6562 59.5 10.5859 59.4688 10.5234C59.4531 10.4609 59.4453 10.3906 59.4453 10.3125C59.4453 10.1875 59.4531 10.0547 59.4688 9.91406C59.5 9.77344 59.5156 9.64062 59.5156 9.51562C59.5 9.46875 59.4844 9.42188 59.4688 9.375C59.4531 9.3125 59.4453 9.25781 59.4453 9.21094C59.4297 9.05469 59.4375 8.90625 59.4688 8.76562C59.5156 8.625 59.5234 8.48438 59.4922 8.34375C59.1797 8.40625 58.9297 8.46875 58.7422 8.53125C58.6797 8.54688 58.6172 8.5625 58.5547 8.57812C58.5078 8.57812 58.4453 8.59375 58.3672 8.625C58.2422 8.65625 58.1406 8.6875 58.0625 8.71875C57.9844 8.75 57.8984 8.72656 57.8047 8.64844C57.6641 8.52344 57.5781 8.42188 57.5469 8.34375C57.5312 8.21875 57.5469 8.11719 57.5938 8.03906C57.6562 7.96094 57.7266 7.88281 57.8047 7.80469C57.7734 7.74219 57.7734 7.69531 57.8047 7.66406C57.8359 7.63281 57.8594 7.57812 57.875 7.5C57.8906 7.42188 57.8906 7.34375 57.875 7.26562C57.875 7.17188 57.8906 7.07812 57.9219 6.98438C57.9531 6.89062 57.9922 6.80469 58.0391 6.72656C58.0859 6.64844 58.1172 6.57031 58.1328 6.49219C58.1484 6.38281 58.1406 6.27344 58.1094 6.16406C58.0781 6.05469 58.0781 5.94531 58.1094 5.83594C58.1562 5.57031 58.3516 5.46875 58.6953 5.53125C58.7891 5.5625 58.875 5.58594 58.9531 5.60156C59.0312 5.61719 59.0859 5.66406 59.1172 5.74219C59.2578 5.72656 59.3594 5.74219 59.4219 5.78906C59.5 5.83594 59.6016 5.85938 59.7266 5.85938C59.8359 5.71875 59.8828 5.53125 59.8672 5.29688C59.8516 5.0625 59.8516 4.8125 59.8672 4.54688C59.8984 4.40625 59.9062 4.30469 59.8906 4.24219C59.875 4.17969 59.8594 4.11719 59.8438 4.05469C59.8125 3.82031 59.8203 3.60156 59.8672 3.39844C59.8828 3.35156 59.8984 3.30469 59.9141 3.25781C59.9297 3.19531 59.9375 3.14062 59.9375 3.09375C59.9375 2.96875 59.9141 2.85938 59.8672 2.76562C59.8672 2.67188 59.8516 2.60156 59.8203 2.55469C59.8047 2.50781 59.7812 2.46875 59.75 2.4375C59.7344 2.40625 59.7188 2.38281 59.7031 2.36719C59.6875 2.33594 59.6875 2.28906 59.7031 2.22656C59.8125 2.11719 59.8906 2.07031 59.9375 2.08594C59.9844 2.08594 60.0469 2.08594 60.125 2.08594C60.25 2.05469 60.3516 2.03125 60.4297 2.01562C60.5234 2 60.6406 2.00781 60.7812 2.03906C60.9219 2.00781 61.0312 2.00781 61.1094 2.03906C61.1875 2.05469 61.2734 2.07031 61.3672 2.08594C61.4297 2.07031 61.4844 2.04688 61.5312 2.01562C61.5781 1.98437 61.625 1.96094 61.6719 1.94531C61.7188 1.97656 61.7812 1.98437 61.8594 1.96875C61.9375 1.9375 61.9922 1.95313 62.0234 2.01562C62.1016 2.125 62.1562 2.19531 62.1875 2.22656C62.2188 2.24219 62.2344 2.26562 62.2344 2.29688C62.2656 2.42188 62.2656 2.60156 62.2344 2.83594C62.2188 3.05469 62.2031 3.25 62.1875 3.42188C62.2031 3.5 62.2109 3.57812 62.2109 3.65625C62.2109 3.71875 62.2109 3.78906 62.2109 3.86719C62.2109 3.91406 62.2031 3.97656 62.1875 4.05469C62.1719 4.13281 62.1641 4.1875 62.1641 4.21875C62.2109 4.35938 62.2266 4.46875 62.2109 4.54688C62.2109 4.60938 62.2188 4.65625 62.2344 4.6875C62.25 4.79688 62.2734 4.89844 62.3047 4.99219C62.3359 5.07031 62.2969 5.16406 62.1875 5.27344C62.2188 5.36719 62.2266 5.46094 62.2109 5.55469C62.1953 5.63281 62.1797 5.72656 62.1641 5.83594C62.1641 5.88281 62.1641 5.9375 62.1641 6C62.1797 6.0625 62.1875 6.11719 62.1875 6.16406C62.1875 6.24219 62.1719 6.3125 62.1406 6.375C62.1094 6.4375 62.1094 6.50781 62.1406 6.58594C62.2656 6.60156 62.375 6.57812 62.4688 6.51562C62.5625 6.45312 62.6562 6.40625 62.75 6.375C62.8438 6.34375 62.9375 6.33594 63.0312 6.35156C63.1406 6.35156 63.2422 6.3125 63.3359 6.23438C63.4141 6.29688 63.5 6.29688 63.5938 6.23438C63.6875 6.17188 63.7656 6.1875 63.8281 6.28125C63.9062 6.1875 64.0391 6.11719 64.2266 6.07031C64.4141 6.02344 64.5703 6.02344 64.6953 6.07031C64.7578 6.19531 64.8047 6.28125 64.8359 6.32812C64.8672 6.35938 64.8906 6.39062 64.9062 6.42188C64.9219 6.45312 64.9219 6.5 64.9062 6.5625C64.8906 6.60938 64.8906 6.66406 64.9062 6.72656C64.9375 6.85156 64.9453 6.9375 64.9297 6.98438C64.9297 7.01562 64.9297 7.04688 64.9297 7.07812C64.9453 7.1875 64.9688 7.28906 65 7.38281C65.0312 7.47656 65.0547 7.5625 65.0703 7.64062L65.0938 7.80469ZM70.6719 2.74219C70.7031 2.77344 70.7109 2.88281 70.6953 3.07031C70.6797 3.25781 70.6562 3.39062 70.625 3.46875C70.6094 3.51562 70.5859 3.5625 70.5547 3.60938C70.5234 3.64062 70.4922 3.67188 70.4609 3.70312C70.4297 3.89062 70.3828 4.03906 70.3203 4.14844C70.2578 4.25781 70.2109 4.35156 70.1797 4.42969C70.1016 4.46094 70.0234 4.50781 69.9453 4.57031C69.8828 4.61719 69.8125 4.65625 69.7344 4.6875C69.5469 4.75 69.3906 4.8125 69.2656 4.875C69.1406 4.92188 69.0156 4.94531 68.8906 4.94531C68.8281 4.94531 68.7734 4.9375 68.7266 4.92188C68.6797 4.89062 68.6328 4.86719 68.5859 4.85156C68.5078 4.83594 68.4297 4.82812 68.3516 4.82812C68.2734 4.82812 68.1953 4.82031 68.1172 4.80469C68.0391 4.66406 67.9453 4.53906 67.8359 4.42969C67.7422 4.30469 67.6719 4.15625 67.625 3.98438C67.5781 3.92188 67.5078 3.84375 67.4141 3.75C67.4141 3.625 67.3906 3.51562 67.3438 3.42188C67.2969 3.3125 67.2734 3.19531 67.2734 3.07031C67.2734 2.97656 67.3047 2.85156 67.3672 2.69531C67.3828 2.61719 67.3906 2.53906 67.3906 2.46094C67.4062 2.38281 67.4219 2.32813 67.4375 2.29688C67.5469 2.17187 67.625 2.10156 67.6719 2.08594C67.7188 2.05469 67.7578 2.01562 67.7891 1.96875C67.8516 1.85938 67.8828 1.78906 67.8828 1.75781C67.8828 1.72656 67.8906 1.69531 67.9062 1.66406C67.9531 1.60156 68.0156 1.54688 68.0938 1.5C68.1875 1.4375 68.2734 1.38281 68.3516 1.33594C68.4297 1.27344 68.5312 1.25 68.6562 1.26562C68.7812 1.26562 68.9297 1.25781 69.1016 1.24219C69.1641 1.36719 69.2656 1.45312 69.4062 1.5C69.5469 1.54688 69.6562 1.63281 69.7344 1.75781C69.8594 1.78906 69.9375 1.8125 69.9688 1.82812C70 1.82812 70.0312 1.84375 70.0625 1.875C70.3281 2.0625 70.5234 2.3125 70.6484 2.625L70.6719 2.74219ZM70.7422 6.79688C70.7109 6.95312 70.6797 7.10938 70.6484 7.26562C70.6328 7.40625 70.6328 7.57031 70.6484 7.75781C70.6484 7.83594 70.6562 7.90625 70.6719 7.96875C70.7031 8.03125 70.7188 8.10156 70.7188 8.17969C70.7188 8.28906 70.7031 8.40625 70.6719 8.53125C70.6406 8.64062 70.625 8.75781 70.625 8.88281C70.625 9.00781 70.625 9.125 70.625 9.23438C70.625 9.32812 70.6328 9.4375 70.6484 9.5625C70.6484 9.625 70.6562 9.67188 70.6719 9.70312C70.6875 9.71875 70.6797 9.75781 70.6484 9.82031C70.5547 10.0391 70.5312 10.3203 70.5781 10.6641C70.625 11.0078 70.6484 11.3125 70.6484 11.5781C70.6328 11.7344 70.6094 11.8906 70.5781 12.0469C70.5469 12.2031 70.5234 12.3672 70.5078 12.5391C70.4766 12.8984 70.4531 13.2578 70.4375 13.6172C70.4375 13.9609 70.4219 14.3047 70.3906 14.6484C70.375 14.7422 70.3672 14.8438 70.3672 14.9531C70.3828 15.0469 70.3828 15.1328 70.3672 15.2109C70.3516 15.4297 70.3281 15.6406 70.2969 15.8438C70.2812 16.0469 70.2578 16.2422 70.2266 16.4297C70.2109 16.5703 70.2109 16.7109 70.2266 16.8516C70.2422 16.9766 70.25 17.1094 70.25 17.25C70.25 17.3281 70.25 17.3984 70.25 17.4609C70.2656 17.5234 70.2734 17.5938 70.2734 17.6719C70.2891 17.7344 70.3047 17.7969 70.3203 17.8594C70.3359 17.9062 70.3438 17.9688 70.3438 18.0469C70.3281 18.1094 70.3203 18.1641 70.3203 18.2109C70.3203 18.2422 70.3203 18.2734 70.3203 18.3047C70.3203 18.3359 70.3281 18.3594 70.3438 18.375C70.3125 18.5 70.3047 18.5859 70.3203 18.6328C70.3359 18.6641 70.3438 18.6953 70.3438 18.7266C70.3281 18.7734 70.3047 18.8281 70.2734 18.8906C70.2578 18.9375 70.25 19 70.25 19.0781C70.25 19.2031 70.2578 19.3281 70.2734 19.4531C70.3047 19.5625 70.3047 19.6797 70.2734 19.8047C70.1641 19.8516 70.0625 19.8984 69.9688 19.9453C69.875 20.0078 69.7422 20.0156 69.5703 19.9688C69.4922 19.9375 69.4453 19.875 69.4297 19.7812C69.4141 19.6875 69.375 19.6094 69.3125 19.5469C69.1875 19.5312 69.0781 19.5078 68.9844 19.4766C68.9062 19.4453 68.8281 19.4062 68.75 19.3594C68.6875 19.3906 68.6016 19.3984 68.4922 19.3828C68.3984 19.3516 68.2969 19.3281 68.1875 19.3125C68.0625 19.2812 67.9453 19.2656 67.8359 19.2656C67.7266 19.2656 67.6406 19.25 67.5781 19.2188C67.4844 19.0938 67.4297 18.9844 67.4141 18.8906C67.4141 18.7812 67.3828 18.7031 67.3203 18.6562C67.3828 18.5156 67.4219 18.3906 67.4375 18.2812C67.4688 18.125 67.4688 17.9844 67.4375 17.8594C67.4062 17.7188 67.3984 17.5703 67.4141 17.4141C67.4141 17.3672 67.4297 17.2812 67.4609 17.1562C67.4766 17.0469 67.4844 16.9531 67.4844 16.875C67.4844 16.7969 67.4922 16.7188 67.5078 16.6406C67.5234 16.5156 67.5391 16.4453 67.5547 16.4297C67.5703 16.3984 67.5859 16.3672 67.6016 16.3359C67.6172 16.0703 67.625 15.7969 67.625 15.5156C67.6406 15.2344 67.6562 15.0312 67.6719 14.9062C67.6719 14.8281 67.6719 14.7734 67.6719 14.7422C67.6875 14.6953 67.6953 14.6328 67.6953 14.5547C67.6953 14.2422 67.7031 13.9766 67.7188 13.7578C67.75 13.5234 67.7578 13.2812 67.7422 13.0312C67.7266 12.8594 67.7266 12.7031 67.7422 12.5625C67.7734 12.4219 67.7891 12.2812 67.7891 12.1406C67.8047 11.9688 67.7969 11.8203 67.7656 11.6953C67.75 11.5547 67.7812 11.4141 67.8594 11.2734C67.7969 11.1172 67.7734 10.9609 67.7891 10.8047C67.8203 10.6484 67.8359 10.5 67.8359 10.3594C67.8359 10.2344 67.8359 10.1172 67.8359 10.0078C67.8359 9.89844 67.8438 9.78125 67.8594 9.65625C67.8594 9.57812 67.8516 9.5 67.8359 9.42188C67.8203 9.32812 67.8281 9.24219 67.8594 9.16406C67.875 8.99219 67.8828 8.875 67.8828 8.8125C67.8984 8.73438 67.9062 8.67969 67.9062 8.64844C67.9062 8.58594 67.8906 8.53125 67.8594 8.48438C67.8438 8.4375 67.8359 8.39062 67.8359 8.34375C67.8359 8.28125 67.8359 8.22656 67.8359 8.17969C67.8516 8.13281 67.8516 8.08594 67.8359 8.03906C67.8047 7.85156 67.7812 7.72656 67.7656 7.66406C67.7656 7.58594 67.7734 7.52344 67.7891 7.47656C67.7734 7.39844 67.7266 7.35156 67.6484 7.33594C67.5703 7.32031 67.5156 7.28125 67.4844 7.21875C67.4531 7.09375 67.4219 6.96094 67.3906 6.82031C67.3594 6.66406 67.3984 6.54688 67.5078 6.46875C67.5859 6.4375 67.6562 6.42969 67.7188 6.44531C67.7969 6.44531 67.8906 6.45312 68 6.46875C68.0938 6.5 68.1562 6.50781 68.1875 6.49219C68.2188 6.47656 68.25 6.47656 68.2812 6.49219C68.3281 6.50781 68.375 6.53125 68.4219 6.5625C68.4844 6.57812 68.5469 6.59375 68.6094 6.60938C68.7656 6.625 68.9453 6.625 69.1484 6.60938C69.3516 6.59375 69.5469 6.57812 69.7344 6.5625C69.9375 6.53125 70.1172 6.51562 70.2734 6.51562C70.4297 6.5 70.5391 6.51562 70.6016 6.5625C70.6484 6.59375 70.6719 6.64062 70.6719 6.70312C70.6719 6.75 70.6953 6.78125 70.7422 6.79688ZM81.6641 3.02344C81.5391 3.10156 81.4062 3.17969 81.2656 3.25781C81.1406 3.33594 81.0547 3.45313 81.0078 3.60938C80.8828 3.73438 80.8047 3.83594 80.7734 3.91406C80.7422 3.97656 80.7031 4.03125 80.6562 4.07812C80.5625 4.07812 80.4844 4.08594 80.4219 4.10156C80.3594 4.11719 80.2891 4.11719 80.2109 4.10156C80.0859 4.07031 79.9922 4 79.9297 3.89062C79.8828 3.78125 79.8203 3.6875 79.7422 3.60938C79.6172 3.57812 79.4922 3.54688 79.3672 3.51562C79.2578 3.46875 79.1484 3.46094 79.0391 3.49219C78.9141 3.52344 78.8359 3.57031 78.8047 3.63281C78.7734 3.67969 78.7109 3.71875 78.6172 3.75C78.6172 3.84375 78.6016 3.9375 78.5703 4.03125C78.5547 4.125 78.5391 4.22656 78.5234 4.33594C78.5234 4.49219 78.5234 4.64844 78.5234 4.80469C78.5234 4.96094 78.5078 5.125 78.4766 5.29688C78.4453 5.45312 78.4062 5.60156 78.3594 5.74219C78.3281 5.86719 78.3359 6 78.3828 6.14062C78.5391 6.21875 78.6953 6.24219 78.8516 6.21094C79.0078 6.17969 79.1719 6.17969 79.3438 6.21094C79.4375 6.22656 79.5312 6.25 79.625 6.28125C79.7188 6.3125 79.8125 6.34375 79.9062 6.375C80.0312 6.35938 80.125 6.35938 80.1875 6.375C80.2656 6.375 80.3438 6.40625 80.4219 6.46875C80.5469 6.54688 80.6016 6.66406 80.5859 6.82031C80.5859 6.96094 80.6016 7.125 80.6328 7.3125C80.6641 7.54688 80.6719 7.75 80.6562 7.92188C80.6406 8.09375 80.6406 8.26562 80.6562 8.4375C80.6094 8.46875 80.5703 8.51562 80.5391 8.57812C80.5078 8.625 80.4766 8.66406 80.4453 8.69531C80.2734 8.72656 80.0781 8.74219 79.8594 8.74219C79.6406 8.74219 79.4531 8.73438 79.2969 8.71875C79.2656 8.71875 79.2109 8.73438 79.1328 8.76562C79.0703 8.78125 79.0234 8.75 78.9922 8.67188C78.9141 8.71875 78.8125 8.74219 78.6875 8.74219C78.5625 8.74219 78.4375 8.74219 78.3125 8.74219C78.2344 8.92969 78.1953 9.15625 78.1953 9.42188C78.2109 9.6875 78.1797 9.91406 78.1016 10.1016C78.1641 10.2734 78.1953 10.5 78.1953 10.7812C78.2266 10.9531 78.2344 11.0703 78.2188 11.1328C78.2031 11.1797 78.1953 11.2188 78.1953 11.25C78.2109 11.5 78.2031 11.7031 78.1719 11.8594C78.1562 12 78.1328 12.125 78.1016 12.2344C78.1484 12.3125 78.1641 12.4141 78.1484 12.5391C78.1328 12.6484 78.125 12.7578 78.125 12.8672C78.125 12.9922 78.125 13.1094 78.125 13.2188C78.125 13.3125 78.1172 13.4141 78.1016 13.5234C78.0859 13.6172 78.0625 13.7266 78.0312 13.8516C78.0156 13.9609 78 14.0859 77.9844 14.2266C77.9688 14.3516 77.9609 14.4844 77.9609 14.625C77.9766 14.7656 77.9453 14.8828 77.8672 14.9766C77.8672 15.0547 77.8984 15.1562 77.9609 15.2812C77.9922 15.5156 77.9922 15.7734 77.9609 16.0547C77.9297 16.3203 77.9297 16.5859 77.9609 16.8516C77.9609 16.8984 77.9609 16.9609 77.9609 17.0391C77.9766 17.1172 77.9844 17.1797 77.9844 17.2266C78.0312 17.3672 78.0469 17.4688 78.0312 17.5312C78.0156 17.5938 78.0078 17.6562 78.0078 17.7188C78.0234 17.7969 78.0469 17.8828 78.0781 17.9766C78.1094 18.0703 78.1328 18.1641 78.1484 18.2578C78.1797 18.3828 78.1875 18.5234 78.1719 18.6797C78.1562 18.8203 78.1562 18.9531 78.1719 19.0781C78.25 19.4688 78.2422 19.7344 78.1484 19.875C78.1328 19.9062 78.0938 19.9375 78.0312 19.9688C77.9688 20.0156 77.9141 20.0625 77.8672 20.1094H77.375H76.9531C76.9219 20.1094 76.8672 20.1172 76.7891 20.1328C76.7266 20.1641 76.6875 20.1406 76.6719 20.0625C76.625 20.0781 76.5703 20.1016 76.5078 20.1328C76.4453 20.1641 76.3828 20.1641 76.3203 20.1328C76.2891 20.1797 76.25 20.2109 76.2031 20.2266C76.1719 20.2422 76.1406 20.2656 76.1094 20.2969C76 20.3281 75.9297 20.3203 75.8984 20.2734C75.8828 20.2422 75.8516 20.2109 75.8047 20.1797C75.7891 20.3672 75.6875 20.4688 75.5 20.4844C75.3281 20.5 75.1641 20.4844 75.0078 20.4375C75.0391 20.3594 75.0234 20.2969 74.9609 20.25C74.9141 20.2031 74.8906 20.1406 74.8906 20.0625C74.875 19.9688 74.8906 19.8594 74.9375 19.7344C75 19.625 75.0312 19.5391 75.0312 19.4766C75.0625 19.2734 75.0703 19.0625 75.0547 18.8438C75.0547 18.625 75.0938 18.4453 75.1719 18.3047C75.125 18.2266 75.1172 18.1406 75.1484 18.0469C75.1797 17.9531 75.1953 17.8672 75.1953 17.7891C75.1797 17.6484 75.1641 17.5234 75.1484 17.4141C75.1328 17.3047 75.125 17.1562 75.125 16.9688C75.125 16.6094 75.1328 16.2812 75.1484 15.9844C75.1797 15.6719 75.1875 15.375 75.1719 15.0938C75.1562 14.9062 75.1406 14.7344 75.125 14.5781C75.125 14.4062 75.125 14.2344 75.125 14.0625C75.2031 13.9688 75.2344 13.8828 75.2188 13.8047C75.2031 13.7109 75.1953 13.6016 75.1953 13.4766C75.1953 13.4297 75.2031 13.3828 75.2188 13.3359C75.2344 13.2891 75.2422 13.2422 75.2422 13.1953C75.2422 13.0859 75.2266 12.9922 75.1953 12.9141C75.1797 12.8359 75.1875 12.75 75.2188 12.6562C75.2344 12.5625 75.25 12.5 75.2656 12.4688C75.2812 12.4219 75.2969 12.3828 75.3125 12.3516C75.2812 12.2266 75.2812 12.125 75.3125 12.0469C75.3594 11.9688 75.375 11.9141 75.3594 11.8828C75.3438 11.8047 75.3438 11.7422 75.3594 11.6953C75.375 11.6328 75.3906 11.5781 75.4062 11.5312C75.4062 11.4062 75.3828 11.2734 75.3359 11.1328C75.3047 10.9766 75.3203 10.8516 75.3828 10.7578C75.4141 10.6797 75.4219 10.5469 75.4062 10.3594C75.4062 10.1562 75.3984 9.99219 75.3828 9.86719C75.4141 9.78906 75.4219 9.71094 75.4062 9.63281C75.3906 9.55469 75.4141 9.49219 75.4766 9.44531C75.3984 9.32031 75.375 9.14844 75.4062 8.92969C75.4375 8.71094 75.4297 8.50781 75.3828 8.32031C75.3203 8.27344 75.25 8.25781 75.1719 8.27344C75.1094 8.27344 75.0234 8.27344 74.9141 8.27344C74.7578 8.25781 74.6484 8.27344 74.5859 8.32031C74.5234 8.35156 74.4531 8.375 74.375 8.39062C74.2188 8.42188 74.0625 8.42969 73.9062 8.41406C73.7656 8.39844 73.6172 8.38281 73.4609 8.36719C73.4453 8.32031 73.4141 8.28906 73.3672 8.27344C73.3203 8.25781 73.3125 8.21094 73.3438 8.13281C73.2656 7.88281 73.2422 7.69531 73.2734 7.57031C73.3047 7.44531 73.3594 7.33594 73.4375 7.24219C73.4219 7.11719 73.4219 7.00781 73.4375 6.91406C73.4688 6.82031 73.5 6.71875 73.5312 6.60938C73.5625 6.5 73.5859 6.42188 73.6016 6.375C73.6328 6.3125 73.6875 6.24219 73.7656 6.16406C73.875 6.10156 73.9375 6.05469 73.9531 6.02344C73.9688 5.97656 73.9922 5.95312 74.0234 5.95312C74.1484 5.9375 74.2812 5.9375 74.4219 5.95312C74.5625 5.95312 74.6953 5.9375 74.8203 5.90625C75.0234 5.84375 75.1875 5.82031 75.3125 5.83594C75.4531 5.83594 75.5703 5.79688 75.6641 5.71875C75.6641 5.64062 75.6641 5.5625 75.6641 5.48438C75.6797 5.40625 75.6719 5.33594 75.6406 5.27344C75.6094 5.19531 75.6094 5.03906 75.6406 4.80469C75.6875 4.57031 75.7344 4.40625 75.7812 4.3125C75.7656 4.26562 75.7578 4.21875 75.7578 4.17188C75.7578 4.125 75.7422 4.08594 75.7109 4.05469C75.7734 3.88281 75.8203 3.71875 75.8516 3.5625C75.8984 3.39062 75.9375 3.21875 75.9688 3.04688C76.0781 2.90625 76.1406 2.80469 76.1562 2.74219C76.1719 2.67969 76.1953 2.63281 76.2266 2.60156C76.3047 2.49219 76.3516 2.42969 76.3672 2.41406C76.3828 2.38281 76.3984 2.35937 76.4141 2.34375C76.4766 2.23438 76.5391 2.15625 76.6016 2.10938C76.6641 2.04688 76.7188 1.98437 76.7656 1.92188C76.8125 1.85938 76.8594 1.80469 76.9062 1.75781C76.9688 1.69531 77.0156 1.63281 77.0469 1.57031C77.125 1.57031 77.1797 1.5625 77.2109 1.54688C77.2422 1.51562 77.2891 1.50781 77.3516 1.52344C77.3828 1.44531 77.3984 1.39063 77.3984 1.35938C77.3984 1.3125 77.4375 1.26562 77.5156 1.21875C77.5469 1.1875 77.5938 1.15625 77.6562 1.125C77.7188 1.09375 77.7656 1.0625 77.7969 1.03125C77.875 1.03125 77.9531 1.03906 78.0312 1.05469C78.1094 1.05469 78.1875 1.03125 78.2656 0.984375C78.2969 0.96875 78.3438 0.953125 78.4062 0.9375C78.4688 0.90625 78.5391 0.882812 78.6172 0.867188C78.7109 0.851563 78.8125 0.851563 78.9219 0.867188C79.0469 0.867188 79.1641 0.875 79.2734 0.890625C79.5391 0.921875 79.7656 1 79.9531 1.125C80.1406 1.25 80.3438 1.35156 80.5625 1.42969C80.625 1.53906 80.7109 1.61719 80.8203 1.66406C80.9453 1.71094 81.0312 1.78906 81.0781 1.89844C81.2031 1.92969 81.2969 1.99219 81.3594 2.08594C81.4219 2.17969 81.5156 2.24219 81.6406 2.27344C81.7031 2.47656 81.7109 2.72656 81.6641 3.02344ZM94.0156 6.21094C94 6.25781 93.9766 6.30469 93.9453 6.35156C93.9297 6.39844 93.9141 6.45312 93.8984 6.51562C93.8516 6.59375 93.8203 6.66406 93.8047 6.72656C93.7891 6.78906 93.7656 6.86719 93.7344 6.96094C93.6719 7.08594 93.6328 7.17969 93.6172 7.24219C93.6172 7.30469 93.6016 7.35938 93.5703 7.40625C93.5547 7.4375 93.5312 7.47656 93.5 7.52344C93.4844 7.57031 93.4609 7.61719 93.4297 7.66406C93.3672 7.74219 93.3281 7.82812 93.3125 7.92188C93.2656 8.04688 93.2188 8.15625 93.1719 8.25C93.125 8.32812 93.1016 8.41406 93.1016 8.50781C92.9766 8.66406 92.8906 8.79688 92.8438 8.90625C92.7969 9.01562 92.7344 9.08594 92.6562 9.11719C92.625 9.25781 92.5859 9.39062 92.5391 9.51562C92.4922 9.64062 92.4453 9.75781 92.3984 9.86719C92.3516 10.0078 92.3047 10.1406 92.2578 10.2656C92.2109 10.375 92.1641 10.4922 92.1172 10.6172C92.0391 10.7578 91.9922 10.8672 91.9766 10.9453C91.9766 11.0234 91.9688 11.0938 91.9531 11.1562C91.875 11.3125 91.8203 11.4688 91.7891 11.625C91.7578 11.7656 91.7109 11.9219 91.6484 12.0938C91.6016 12.2188 91.5391 12.3438 91.4609 12.4688C91.3984 12.5781 91.3281 12.6953 91.25 12.8203C91.1875 12.9922 91.1406 13.1016 91.1094 13.1484C91.0938 13.1953 91.0781 13.2344 91.0625 13.2656C91.0312 13.3438 91.0078 13.4219 90.9922 13.5C90.9922 13.5625 90.9766 13.6328 90.9453 13.7109C90.8516 13.8828 90.7891 14.0156 90.7578 14.1094C90.7422 14.2031 90.7109 14.2891 90.6641 14.3672C90.5703 14.5391 90.5078 14.6875 90.4766 14.8125C90.4609 14.9375 90.4062 15.0391 90.3125 15.1172C90.3125 15.2422 90.2969 15.3438 90.2656 15.4219C90.2344 15.4844 90.2031 15.5312 90.1719 15.5625C90.1406 15.5781 90.1094 15.6172 90.0781 15.6797C90.0312 15.7891 90 15.9062 89.9844 16.0312C89.9688 16.1406 89.9297 16.2422 89.8672 16.3359C89.7891 16.4609 89.7188 16.5859 89.6562 16.7109C89.6094 16.8203 89.5703 16.9297 89.5391 17.0391C89.4609 17.1953 89.3984 17.3516 89.3516 17.5078C89.3047 17.6484 89.2188 17.7734 89.0938 17.8828C89.125 17.9609 89.1172 18.0312 89.0703 18.0938C89.0234 18.1562 88.9922 18.2109 88.9766 18.2578C88.9141 18.3828 88.875 18.4844 88.8594 18.5625C88.8438 18.625 88.8203 18.6875 88.7891 18.75C88.7578 18.8125 88.7266 18.8672 88.6953 18.9141C88.6641 18.9609 88.6328 19.0234 88.6016 19.1016C88.5703 19.1641 88.5391 19.2266 88.5078 19.2891C88.4922 19.3359 88.4531 19.3828 88.3906 19.4297C88.3594 19.6016 88.3203 19.7422 88.2734 19.8516C88.2422 19.9766 88.1875 20.1094 88.1094 20.25C88.0469 20.3906 88.0078 20.5078 87.9922 20.6016C87.9766 20.7109 87.9531 20.8047 87.9219 20.8828C87.8906 20.9609 87.8594 21.0312 87.8281 21.0938C87.7969 21.1719 87.7656 21.2344 87.7344 21.2812C87.6719 21.4375 87.6094 21.5391 87.5469 21.5859C87.5469 21.6953 87.5234 21.7891 87.4766 21.8672C87.4453 21.9453 87.4141 22.0234 87.3828 22.1016C87.3516 22.1797 87.3203 22.25 87.2891 22.3125C87.2734 22.3906 87.2344 22.4531 87.1719 22.5C87.1875 22.6719 87.1719 22.8125 87.125 22.9219C87.0781 23.0312 87.0391 23.1484 87.0078 23.2734C86.9766 23.3516 86.9922 23.3906 87.0547 23.3906C87.1172 23.3906 87.1406 23.4297 87.125 23.5078C87.1094 23.6172 87.0859 23.7109 87.0547 23.7891C87.0234 23.8672 87.0156 23.9688 87.0312 24.0938C86.9531 24.125 86.8906 24.1719 86.8438 24.2344C86.8125 24.3125 86.7656 24.3828 86.7031 24.4453C86.4219 24.3984 86.1328 24.3984 85.8359 24.4453C85.5547 24.4922 85.3203 24.4531 85.1328 24.3281C84.8203 24.3594 84.5078 24.3281 84.1953 24.2344C83.8984 24.1406 83.6328 24.0156 83.3984 23.8594C83.3984 23.7812 83.3828 23.7109 83.3516 23.6484C83.3203 23.5859 83.3125 23.5234 83.3281 23.4609C83.3281 23.3359 83.3672 23.2109 83.4453 23.0859C83.5391 22.9766 83.5781 22.8359 83.5625 22.6641C83.6562 22.5703 83.7344 22.4609 83.7969 22.3359C83.8594 22.2109 83.8984 22.0625 83.9141 21.8906C83.9609 21.8281 83.9922 21.7656 84.0078 21.7031C84.0391 21.6406 84.0703 21.5781 84.1016 21.5156C84.1328 21.4531 84.1484 21.3984 84.1484 21.3516C84.1641 21.3047 84.1875 21.2578 84.2188 21.2109C84.25 21.1641 84.2891 21.0547 84.3359 20.8828C84.4141 20.7734 84.4609 20.6641 84.4766 20.5547C84.4922 20.4609 84.5391 20.3984 84.6172 20.3672V20.0625C84.6953 20.0312 84.7344 19.9766 84.7344 19.8984C84.7344 19.8359 84.75 19.7812 84.7812 19.7344C84.8125 19.6875 84.8438 19.6484 84.875 19.6172C84.9062 19.6016 84.9375 19.5547 84.9688 19.4766C85 19.4297 85.0156 19.375 85.0156 19.3125C85.0312 19.25 85.0547 19.1953 85.0859 19.1484C85.1172 19.1016 85.1406 19.0547 85.1562 19.0078C85.1875 18.9453 85.2188 18.8906 85.25 18.8438C85.4531 18.4531 85.6797 18.1016 85.9297 17.7891C85.9297 17.6484 85.9609 17.5469 86.0234 17.4844C85.9922 17.4062 85.9531 17.3359 85.9062 17.2734C85.875 17.2109 85.8438 17.1406 85.8125 17.0625C85.7969 16.9531 85.7578 16.8672 85.6953 16.8047C85.6484 16.7422 85.6406 16.6719 85.6719 16.5938C85.6094 16.5625 85.5703 16.5234 85.5547 16.4766C85.5547 16.4297 85.5312 16.3906 85.4844 16.3594C85.4844 16.2031 85.4531 16.0703 85.3906 15.9609C85.3438 15.8516 85.3281 15.7109 85.3438 15.5391C85.2656 15.5078 85.2188 15.4766 85.2031 15.4453C85.2031 15.4141 85.1875 15.3828 85.1562 15.3516C85.0469 15.1328 84.9688 14.8672 84.9219 14.5547C84.9062 14.4922 84.875 14.4453 84.8281 14.4141C84.7812 14.3828 84.7422 14.3281 84.7109 14.25C84.6797 14.1562 84.6953 14.1016 84.7578 14.0859C84.8203 14.0547 84.8516 14 84.8516 13.9219C84.6953 13.75 84.5938 13.6016 84.5469 13.4766C84.5156 13.3359 84.4688 13.2031 84.4062 13.0781C84.3438 12.9844 84.2969 12.9062 84.2656 12.8438C84.2344 12.7812 84.2031 12.7109 84.1719 12.6328C84.125 12.4766 84.0859 12.375 84.0547 12.3281C84.0391 12.2656 84.0234 12.2188 84.0078 12.1875C83.9297 11.9219 83.8594 11.7188 83.7969 11.5781C83.7344 11.4375 83.6797 11.3047 83.6328 11.1797C83.5547 11.0234 83.4922 10.8828 83.4453 10.7578C83.4141 10.6328 83.375 10.5234 83.3281 10.4297C83.2969 10.3672 83.2656 10.3125 83.2344 10.2656C83.2188 10.2031 83.1953 10.1406 83.1641 10.0781C83.1328 10 83.1094 9.9375 83.0938 9.89062C83.0781 9.82812 83.0547 9.75781 83.0234 9.67969C82.9609 9.60156 82.9219 9.53125 82.9062 9.46875C82.9062 9.40625 82.8906 9.34375 82.8594 9.28125C82.8125 9.17188 82.7578 9.05469 82.6953 8.92969C82.6484 8.80469 82.6406 8.66406 82.6719 8.50781C82.5781 8.32031 82.4766 8.13281 82.3672 7.94531C82.2734 7.75781 82.2109 7.53906 82.1797 7.28906C82.1016 7.19531 82.0391 7.08594 81.9922 6.96094C81.9609 6.83594 81.9141 6.71094 81.8516 6.58594C81.8047 6.52344 81.7656 6.46875 81.7344 6.42188C81.7031 6.375 81.6719 6.3125 81.6406 6.23438C81.6094 6.17188 81.5938 6.11719 81.5938 6.07031C81.5938 6.02344 81.5859 5.96094 81.5703 5.88281C81.6641 5.75781 81.7266 5.67188 81.7578 5.625C81.7891 5.5625 81.8281 5.52344 81.875 5.50781C82.0469 5.49219 82.1797 5.50781 82.2734 5.55469C82.3359 5.58594 82.4453 5.64844 82.6016 5.74219C82.7578 5.82031 82.9141 5.8125 83.0703 5.71875C83.1484 5.65625 83.2109 5.625 83.2578 5.625C83.3203 5.60938 83.3672 5.59375 83.3984 5.57812L83.6797 5.50781C83.7422 5.47656 83.7891 5.45312 83.8203 5.4375C83.8672 5.42188 83.9141 5.42188 83.9609 5.4375C84.1016 5.46875 84.1875 5.57031 84.2188 5.74219C84.3125 5.82031 84.3672 5.89062 84.3828 5.95312C84.4141 6 84.4453 6.03125 84.4766 6.04688C84.5078 6.20312 84.5391 6.3125 84.5703 6.375C84.6172 6.42188 84.6562 6.46094 84.6875 6.49219C84.7188 6.61719 84.7891 6.75781 84.8984 6.91406C84.9609 7.08594 85.0156 7.24219 85.0625 7.38281C85.1094 7.52344 85.1641 7.67188 85.2266 7.82812C85.2578 7.90625 85.2812 7.98438 85.2969 8.0625C85.3125 8.125 85.3359 8.19531 85.3672 8.27344C85.3984 8.33594 85.4297 8.40625 85.4609 8.48438C85.5078 8.54688 85.5469 8.60938 85.5781 8.67188C85.6094 8.75 85.625 8.8125 85.625 8.85938C85.625 8.89062 85.6406 8.95312 85.6719 9.04688C85.7031 9.17188 85.7578 9.29688 85.8359 9.42188C85.9297 9.53125 86.0078 9.64844 86.0703 9.77344C86.1484 9.97656 86.2109 10.1484 86.2578 10.2891C86.3203 10.4141 86.375 10.5312 86.4219 10.6406C86.5 10.8125 86.5703 11.0078 86.6328 11.2266C86.7109 11.4453 86.7891 11.6484 86.8672 11.8359C86.9141 11.9141 86.9453 11.9922 86.9609 12.0703C86.9922 12.1328 87.0234 12.2031 87.0547 12.2812C87.0859 12.3594 87.1172 12.4375 87.1484 12.5156C87.1953 12.5781 87.2109 12.6562 87.1953 12.75C87.3203 12.9219 87.4141 13.125 87.4766 13.3594C87.5391 13.5781 87.6406 13.7656 87.7812 13.9219C87.9375 13.75 88.0469 13.5547 88.1094 13.3359C88.1875 13.1016 88.3047 12.8984 88.4609 12.7266C88.4453 12.6797 88.4453 12.6406 88.4609 12.6094C88.4766 12.5625 88.4922 12.5156 88.5078 12.4688C88.5547 12.3281 88.5938 12.2188 88.625 12.1406C88.6875 11.9844 88.7422 11.8359 88.7891 11.6953C88.8203 11.6172 88.8438 11.5469 88.8594 11.4844C88.8906 11.4219 88.9219 11.3438 88.9531 11.25C88.9844 11.0938 89.0469 10.9375 89.1406 10.7812C89.25 10.625 89.3203 10.4609 89.3516 10.2891C89.3984 10.2578 89.4297 10.2188 89.4453 10.1719C89.4609 10.125 89.5 10.0859 89.5625 10.0547C89.5938 9.88281 89.6328 9.72656 89.6797 9.58594C89.7422 9.42969 89.8125 9.28125 89.8906 9.14062C89.9219 9.01562 89.9531 8.90625 89.9844 8.8125C90.0312 8.70312 90.1016 8.60156 90.1953 8.50781C90.1641 8.42969 90.1719 8.35938 90.2188 8.29688C90.2812 8.21875 90.3281 8.14062 90.3594 8.0625C90.3594 7.9375 90.3672 7.85938 90.3828 7.82812C90.4141 7.78125 90.4297 7.75 90.4297 7.73438C90.4297 7.65625 90.4453 7.58594 90.4766 7.52344C90.4922 7.49219 90.5078 7.46875 90.5234 7.45312C90.5547 7.35938 90.5781 7.26562 90.5938 7.17188C90.6094 7.0625 90.6562 6.96875 90.7344 6.89062C90.6875 6.71875 90.7031 6.55469 90.7812 6.39844C90.8438 6.22656 90.8594 6.07031 90.8281 5.92969C90.8125 5.77344 90.8359 5.63281 90.8984 5.50781C91.0234 5.39844 91.1328 5.34375 91.2266 5.34375C91.3203 5.32812 91.3984 5.29688 91.4609 5.25C91.6797 5.34375 91.9688 5.36719 92.3281 5.32031C92.6719 5.27344 92.9609 5.25781 93.1953 5.27344C93.4453 5.27344 93.6875 5.28906 93.9219 5.32031C94.0156 5.44531 94.0625 5.58594 94.0625 5.74219C94.0625 5.89844 94.0469 6.05469 94.0156 6.21094Z" fill="#E0580C"/>
</svg>
